<svg width="34" height="34" fill="none" xmlns="http://www.w3.org/2000/svg"><path d="M8.535 12.573h6.942v-1.77H8.535v1.77zm10.2 12.112h7.12V22.95h-7.12v1.735zm0-3.79h7.12v-1.77h-7.12v1.77zm-7.614 5.03h1.77v-3.117h3.117v-1.77h-3.116V17.92H11.12v3.117H8.004v1.77h3.117v3.117zm8.925-10.802l2.16-2.16 2.16 2.16 1.276-1.275-2.16-2.16 2.16-2.16-1.275-1.276-2.16 2.16-2.161-2.16-1.275 1.275 2.16 2.16-2.16 2.16 1.275 1.276zM6.375 29.75c-.567 0-1.063-.212-1.487-.637-.425-.425-.638-.921-.638-1.488V6.375c0-.567.213-1.063.638-1.487.425-.425.92-.638 1.487-.638h21.25c.567 0 1.063.213 1.488.638.425.425.637.92.637 1.487v21.25c0 .567-.212 1.063-.637 1.488-.425.425-.921.637-1.488.637H6.375zm0-2.125h21.25V6.375H6.375v21.25zm0 0V6.375v21.25z" fill="#fff"/></svg>