<svg width="29" height="29" fill="none" xmlns="http://www.w3.org/2000/svg"><path d="M14.333 28.833c-2.376 0-4.667-.7-6.873-2.1-2.206-1.4-3.945-3.001-5.218-4.804v4.359H.333V18.65h7.636v1.91H3.61c1.082 1.633 2.625 3.102 4.63 4.406 2.004 1.305 4.035 1.957 6.093 1.957 1.655 0 3.219-.318 4.693-.954a12.249 12.249 0 003.85-2.594 12.251 12.251 0 002.593-3.85c.637-1.474.955-3.038.955-4.693h1.909c0 1.93-.366 3.744-1.098 5.441a14.17 14.17 0 01-3.006 4.455 14.17 14.17 0 01-4.455 3.006c-1.697.732-3.51 1.098-5.441 1.098zm-14-14c0-1.93.366-3.744 1.098-5.44a14.17 14.17 0 013.007-4.455A14.17 14.17 0 018.892 1.93c1.697-.732 3.51-1.098 5.441-1.098 2.376 0 4.667.7 6.873 2.1 2.206 1.4 3.945 3.002 5.218 4.805v-4.36h1.909v7.637h-7.636V9.106h4.359c-1.082-1.633-2.62-3.102-4.614-4.407-1.994-1.304-4.03-1.957-6.109-1.957-1.655 0-3.219.319-4.693.955A12.251 12.251 0 005.79 6.29a12.25 12.25 0 00-2.593 3.85 11.715 11.715 0 00-.955 4.693H.333zm13.077 9.132h1.75v-1.654c1.294-.149 2.302-.547 3.023-1.194.721-.647 1.082-1.511 1.082-2.593s-.308-1.962-.923-2.64c-.615-.68-1.654-1.327-3.118-1.942-1.23-.509-2.121-.965-2.673-1.368-.551-.403-.827-.944-.827-1.623 0-.657.239-1.177.716-1.559.477-.381 1.13-.572 1.957-.572.636 0 1.188.148 1.654.445.467.297.86.742 1.178 1.336l1.527-.731c-.36-.743-.838-1.326-1.432-1.75-.594-.425-1.294-.68-2.1-.764V5.733h-1.75v1.623c-1.082.148-1.936.546-2.561 1.193-.626.647-.94 1.448-.94 2.402 0 1.04.32 1.867.955 2.482.637.615 1.591 1.188 2.864 1.718 1.421.594 2.397 1.13 2.927 1.607.53.477.796 1.066.796 1.766 0 .679-.281 1.225-.843 1.639-.563.413-1.268.62-2.116.62a3.685 3.685 0 01-2.212-.7c-.647-.466-1.097-1.103-1.352-1.909l-1.623.541c.446.976.992 1.745 1.639 2.307.647.562 1.448.97 2.402 1.225v1.718z" fill="#006"/></svg>