<svg width="33" height="33" fill="none" xmlns="http://www.w3.org/2000/svg"><path d="M18.738 31.25c-.276 0-.539-.04-.791-.12a1.804 1.804 0 01-.722-.464L4.335 17.775c-.23-.23-.384-.47-.465-.722a2.592 2.592 0 01-.12-.79V5.813c0-.596.195-1.089.584-1.479.39-.39.883-.584 1.479-.584h10.45c.274 0 .55.04.824.12.276.08.528.235.757.464l12.822 12.822c.458.459.687.969.687 1.53s-.229 1.071-.687 1.53l-10.45 10.45a1.925 1.925 0 01-.67.43 2.2 2.2 0 01-.808.154zm.068-1.994l10.45-10.45L16.262 5.812H5.813v10.45l12.994 12.994zM9.422 11.175c.481 0 .9-.178 1.255-.533.355-.355.532-.773.532-1.255 0-.48-.177-.899-.532-1.254A1.717 1.717 0 009.422 7.6c-.481 0-.9.178-1.255.533a1.717 1.717 0 00-.533 1.255c0 .48.178.899.533 1.254.355.355.774.533 1.255.533z" fill="#006"/></svg>