<svg width="25" height="26" fill="none" xmlns="http://www.w3.org/2000/svg"><path d="M3.444 22.172a11.995 11.995 0 01-2.537-3.825A11.437 11.437 0 010 13.897c0-1.79.315-3.428.944-4.911.63-1.484 1.574-2.85 2.833-4.102.864-.858 1.938-1.581 3.222-2.17 1.284-.588 2.796-1.048 4.536-1.379 1.74-.331 3.71-.54 5.907-.625 2.197-.086 4.641-.043 7.332.128.198 2.649.266 5.07.204 7.265-.062 2.195-.26 4.163-.593 5.904-.333 1.74-.802 3.267-1.407 4.58-.605 1.311-1.351 2.408-2.24 3.291-1.26 1.25-2.617 2.195-4.074 2.832a11.507 11.507 0 01-4.666.957c-1.703 0-3.265-.288-4.684-.865-1.42-.576-2.71-1.453-3.87-2.63zm3.814 0a7.14 7.14 0 002.148.957c.815.22 1.679.33 2.592.33 1.309 0 2.58-.269 3.815-.808 1.234-.54 2.357-1.325 3.37-2.354.666-.663 1.234-1.527 1.703-2.594.469-1.066.852-2.33 1.148-3.788.296-1.46.494-3.108.592-4.948.1-1.839.1-3.862 0-6.069-2.32-.049-4.4-.018-6.24.092-1.839.11-3.462.313-4.87.607-1.406.294-2.616.668-3.628 1.122-1.012.454-1.84 1.011-2.481 1.674C4.37 7.447 3.58 8.563 3.037 9.74c-.544 1.177-.815 2.378-.815 3.604 0 1.178.253 2.41.76 3.697.505 1.288 1.129 2.324 1.87 3.108a30.289 30.289 0 014.702-6.473c1.827-1.913 3.765-3.421 5.814-4.525-2.148 1.84-3.888 3.832-5.221 5.978-1.333 2.145-2.296 4.493-2.889 7.043z" fill="#006"/></svg>