<svg width="29" height="27" fill="none" xmlns="http://www.w3.org/2000/svg"><path d="M19.933 12.982c.397 0 .73-.13.997-.393.269-.262.403-.587.403-.975s-.134-.713-.402-.975a1.37 1.37 0 00-.998-.393c-.397 0-.73.13-.997.393a1.309 1.309 0 00-.403.975c0 .388.134.713.402.975.269.262.601.393.998.393zm-11.2-3.42h7V7.508h-7V9.56zm-4.9 17.105c-.7-2.258-1.272-4.197-1.715-5.816-.443-1.62-.8-3.028-1.067-4.225a31.459 31.459 0 01-.56-3.13 21.902 21.902 0 01-.158-2.566c0-2.098.747-3.877 2.24-5.337 1.493-1.46 3.313-2.19 5.46-2.19h7A7.078 7.078 0 0117.43 1.42c.97-.502 2.036-.753 3.203-.753.583 0 1.08.2 1.488.598a1.957 1.957 0 01.56 1.865 2.87 2.87 0 01-.123.376c-.093.251-.18.502-.262.753-.082.25-.146.524-.193.82l3.185 3.114h3.045v9.545l-3.955 1.266-2.345 7.663h-7.7V23.93h-2.8v2.737h-7.7zm1.575-2.053h4.025v-2.737h7v2.737h4.025l2.205-7.184 3.57-1.197v-5.987h-1.82l-4.48-4.38c.023-.387.087-.86.192-1.419.105-.559.251-1.18.438-1.864-1.003.25-1.89.627-2.66 1.128-.77.502-1.33 1.084-1.68 1.745h-8.19c-1.54 0-2.858.536-3.955 1.608s-1.645 2.36-1.645 3.866c0 .958.257 2.628.77 5.012.513 2.383 1.248 5.274 2.205 8.672z" fill="#006"/></svg>