<svg width="29" height="29" fill="none" xmlns="http://www.w3.org/2000/svg"><path d="M8.459 4.23V2.416h12.083v1.812H8.459zM4.5 7.853V6.042h20v1.812H4.501zm-.272 18.73c-.483 0-.906-.182-1.268-.544-.363-.363-.544-.786-.544-1.27V11.48c0-.484.181-.907.544-1.27.362-.362.785-.543 1.268-.543H24.77c.483 0 .906.18 1.269.543.362.363.544.786.544 1.27v13.29c0 .484-.182.907-.544 1.27-.363.362-.785.543-1.269.543H4.23zm0-1.813H24.77V11.479H4.23v13.292z" fill="#006"/><path fill-rule="evenodd" clip-rule="evenodd" d="M14.25 22v-9h1.5v9h-1.5z" fill="#006"/><path fill-rule="evenodd" clip-rule="evenodd" d="M19.5 18.25h-9v-1.5h9v1.5z" fill="#006"/></svg>