<svg width="28" height="33" fill="none" xmlns="http://www.w3.org/2000/svg"><path d="M16.265 33l-.412-4.538h-1.647c-3.926 0-7.275-1.388-10.047-4.166C1.386 21.52 0 18.164 0 14.231 0 10.3 1.393 6.944 4.18 4.166 6.965 1.39 10.334 0 14.287 0c1.95 0 3.754.35 5.415 1.052a13.16 13.16 0 014.344 2.95c1.235 1.264 2.203 2.756 2.903 4.475.7 1.719 1.05 3.595 1.05 5.63 0 3.686-1.036 7.24-3.109 10.664-2.072 3.423-4.948 6.166-8.626 8.229zm-1.977-9.199c.44 0 .81-.151 1.112-.453.302-.303.453-.674.453-1.114 0-.44-.151-.812-.453-1.114a1.51 1.51 0 00-1.112-.454c-.439 0-.81.151-1.111.454a1.516 1.516 0 00-.454 1.114c0 .44.151.811.454 1.113a1.51 1.51 0 001.111.454zm-1.111-5.61h2.058c0-.687.117-1.258.35-1.712.234-.453.72-1.051 1.462-1.794.741-.742 1.263-1.423 1.565-2.042a4.501 4.501 0 00.453-2c0-1.238-.419-2.256-1.256-3.053-.837-.797-1.956-1.196-3.356-1.196-1.153 0-2.182.302-3.088.907-.906.605-1.579 1.43-2.018 2.475l1.894.784c.302-.715.72-1.244 1.256-1.588.535-.344 1.146-.516 1.832-.516.824 0 1.469.2 1.936.598.466.4.7.928.7 1.588 0 .523-.151 1.052-.453 1.589-.302.536-.838 1.203-1.606 2-.741.77-1.215 1.389-1.42 1.856-.207.468-.31 1.17-.31 2.104zm5.146 7.797v2.557c2.252-1.898 4.015-4.132 5.292-6.703 1.276-2.571 1.914-5.15 1.914-7.734 0-3.41-1.063-6.202-3.19-8.374-2.128-2.173-4.811-3.259-8.05-3.259-3.295 0-6.088 1.148-8.38 3.444-2.292 2.297-3.438 5.067-3.438 8.312 0 3.245 1.146 6.016 3.438 8.312 2.292 2.296 5.058 3.445 8.297 3.445h4.117z" fill="#fff"/></svg>