<svg width="30" height="30" fill="none" xmlns="http://www.w3.org/2000/svg"><path fill-rule="evenodd" clip-rule="evenodd" d="M14.5 1.25a.75.75 0 01.714.518l2.862 8.81h9.264a.75.75 0 01.44 1.357l-7.494 5.445 2.863 8.81a.75.75 0 01-1.154.838L14.5 21.585 7.006 27.03a.75.75 0 01-1.154-.839l2.863-8.81-7.495-5.445a.75.75 0 01.441-1.357h9.264l2.862-8.81a.75.75 0 01.713-.518zm0 3.177l-2.317 7.133a.75.75 0 01-.713.518h-7.5l6.067 4.409a.75.75 0 01.273.838l-2.318 7.133 6.068-4.408a.75.75 0 01.881 0l6.068 4.408-2.318-7.133a.75.75 0 01.273-.838l6.067-4.409h-7.5a.75.75 0 01-.713-.518L14.5 4.427z" fill="#006"/></svg>