<svg width="31" height="26" fill="none" xmlns="http://www.w3.org/2000/svg"><path d="M12.575 11.778c-1.66 0-3.018-.526-4.075-1.579-1.057-1.052-1.585-2.406-1.585-4.06 0-1.654.528-3.007 1.585-4.06C9.557 1.026 10.915.5 12.575.5c1.66 0 3.02.526 4.076 1.579 1.056 1.053 1.585 2.406 1.585 4.06 0 1.654-.529 3.008-1.585 4.06-1.057 1.053-2.415 1.58-4.075 1.58zM.5 23.846v-3.534c0-.877.22-1.667.66-2.368.44-.702 1.076-1.241 1.906-1.617 1.811-.802 3.49-1.378 5.038-1.73 1.547-.35 3.038-.526 4.472-.526h.867a5.83 5.83 0 00-.34 1.034c-.075.339-.138.746-.188 1.222h-.34c-1.459 0-2.886.157-4.283.47-1.396.313-2.836.833-4.32 1.56a2.04 2.04 0 00-.906.846 2.265 2.265 0 00-.302 1.109v1.278h10.151c.126.451.277.859.453 1.222s.39.708.641 1.034H.5zM22.65 25.5l-.376-2.481a6.705 6.705 0 01-1.302-.545 4.794 4.794 0 01-1.114-.809l-2.075.451-.943-1.578 1.773-1.654c-.05-.226-.075-.54-.075-.94 0-.401.025-.715.075-.94L16.84 15.35l.943-1.58 2.075.452c.302-.3.673-.57 1.114-.808.44-.239.874-.42 1.302-.546l.377-2.48h2.038l.377 2.48c.428.126.862.307 1.302.546.44.238.811.507 1.113.808l2.076-.451.943 1.579-1.774 1.654c.05.225.076.539.076.94 0 .4-.025.714-.076.94l1.774 1.654-.943 1.578-2.076-.45c-.302.3-.673.57-1.113.808a6.68 6.68 0 01-1.302.545l-.377 2.481H22.65zm1.02-4.549c.905 0 1.635-.276 2.188-.827.554-.551.83-1.278.83-2.18 0-.903-.276-1.63-.83-2.18-.553-.552-1.282-.828-2.188-.828-.906 0-1.635.276-2.189.827-.553.551-.83 1.278-.83 2.18 0 .903.277 1.63.83 2.181.554.551 1.283.827 2.189.827zM12.575 9.523c.982 0 1.793-.32 2.434-.96.642-.638.963-1.446.963-2.424 0-.977-.321-1.786-.963-2.425-.641-.639-1.452-.958-2.434-.958-.98 0-1.792.32-2.433.958-.642.64-.963 1.448-.963 2.425 0 .978.321 1.786.963 2.425.641.639 1.452.959 2.434.959z" fill="#006"/></svg>