<svg width="34" height="34" viewBox="0 0 34 34" fill="none" xmlns="http://www.w3.org/2000/svg">
<path d="M8.53542 12.5729H15.4771V10.8021H8.53542V12.5729ZM18.7354 24.6854H25.8542V22.95H18.7354V24.6854ZM18.7354 20.8958H25.8542V19.125H18.7354V20.8958ZM11.1208 25.925H12.8917V22.8083H16.0083V21.0375H12.8917V17.9208H11.1208V21.0375H8.00417V22.8083H11.1208V25.925ZM20.0458 15.1229L22.2062 12.9625L24.3667 15.1229L25.6417 13.8479L23.4813 11.6875L25.6417 9.52708L24.3667 8.25208L22.2062 10.4125L20.0458 8.25208L18.7708 9.52708L20.9312 11.6875L18.7708 13.8479L20.0458 15.1229ZM6.375 29.75C5.80833 29.75 5.3125 29.5375 4.8875 29.1125C4.4625 28.6875 4.25 28.1917 4.25 27.625V6.375C4.25 5.80833 4.4625 5.3125 4.8875 4.8875C5.3125 4.4625 5.80833 4.25 6.375 4.25H27.625C28.1917 4.25 28.6875 4.4625 29.1125 4.8875C29.5375 5.3125 29.75 5.80833 29.75 6.375V27.625C29.75 28.1917 29.5375 28.6875 29.1125 29.1125C28.6875 29.5375 28.1917 29.75 27.625 29.75H6.375ZM6.375 27.625H27.625V6.375H6.375V27.625ZM6.375 27.625V6.375V27.625Z" fill="white"/>
</svg>
