<svg width="29" height="29" viewBox="0 0 29 29" fill="none" xmlns="http://www.w3.org/2000/svg">
<path d="M14.333 28.8333C11.9573 28.8333 9.66634 28.1333 7.46028 26.7333C5.25422 25.3333 3.51483 23.7317 2.2421 21.9287V26.2878H0.333008V18.6514H7.96937V20.5605H3.61028C4.6921 22.1939 6.23528 23.6628 8.23983 24.9673C10.2444 26.2719 12.2754 26.9242 14.333 26.9242C15.9876 26.9242 17.5519 26.606 19.0262 25.9696C20.5004 25.3333 21.7838 24.4689 22.8762 23.3764C23.9686 22.284 24.833 21.0007 25.4694 19.5264C26.1057 18.0522 26.4239 16.4878 26.4239 14.8333H28.333C28.333 16.7636 27.9671 18.5772 27.2353 20.2742C26.5035 21.9711 25.5012 23.456 24.2285 24.7287C22.9557 26.0014 21.4709 27.0037 19.7739 27.7355C18.0769 28.4673 16.2633 28.8333 14.333 28.8333ZM0.333008 14.8333C0.333008 12.9029 0.698917 11.0893 1.43074 9.39234C2.16255 7.69537 3.16483 6.21052 4.43755 4.9378C5.71028 3.66507 7.19513 2.6628 8.8921 1.93098C10.5891 1.19916 12.4027 0.833252 14.333 0.833252C16.7088 0.833252 18.9997 1.53325 21.2057 2.93325C23.4118 4.33325 25.1512 5.93477 26.4239 7.7378V3.37871H28.333V11.0151H20.6966V9.10598H25.0557C23.9739 7.47265 22.436 6.00371 20.4421 4.69916C18.4482 3.39462 16.4118 2.74234 14.333 2.74234C12.6785 2.74234 11.1141 3.06052 9.63983 3.69689C8.16558 4.33325 6.88225 5.19765 5.78983 6.29007C4.6974 7.38249 3.83301 8.66583 3.19664 10.1401C2.56028 11.6143 2.2421 13.1787 2.2421 14.8333H0.333008ZM13.4103 23.9651H15.1603V22.3105C16.4542 22.162 17.4618 21.7643 18.183 21.1173C18.9042 20.4704 19.2648 19.606 19.2648 18.5242C19.2648 17.4423 18.9572 16.562 18.3421 15.8833C17.7269 15.2045 16.6876 14.5575 15.2239 13.9423C13.9936 13.4333 13.1027 12.9772 12.5512 12.5742C11.9997 12.1711 11.7239 11.6302 11.7239 10.9514C11.7239 10.2939 11.9626 9.77416 12.4398 9.39234C12.9171 9.01052 13.5694 8.81962 14.3966 8.81962C15.033 8.81962 15.5845 8.9681 16.0512 9.26507C16.5179 9.56204 16.9103 10.0075 17.2285 10.6014L18.7557 9.86962C18.3951 9.12719 17.9179 8.54386 17.3239 8.11962C16.73 7.69537 16.03 7.44083 15.2239 7.35598V5.73325H13.4739V7.35598C12.3921 7.50446 11.5383 7.90219 10.9126 8.54916C10.2868 9.19613 9.97392 9.99689 9.97392 10.9514C9.97392 11.9908 10.2921 12.8181 10.9285 13.4333C11.5648 14.0484 12.5194 14.6211 13.7921 15.1514C15.2133 15.7454 16.1891 16.281 16.7194 16.7583C17.2497 17.2355 17.5148 17.8242 17.5148 18.5242C17.5148 19.2029 17.2338 19.7492 16.6716 20.1628C16.1095 20.5764 15.4042 20.7833 14.5557 20.7833C13.7285 20.7833 12.9913 20.5499 12.3444 20.0833C11.6974 19.6166 11.2466 18.9802 10.9921 18.1742L9.36937 18.7151C9.81483 19.6908 10.361 20.4598 11.008 21.0219C11.655 21.584 12.4557 21.9923 13.4103 22.2469V23.9651Z" fill="#000066"/>
</svg>
