<svg width="33" height="33" viewBox="0 0 33 33" fill="none" xmlns="http://www.w3.org/2000/svg">
<path d="M18.7375 31.25C18.4625 31.25 18.199 31.2099 17.9469 31.1297C17.6948 31.0495 17.4542 30.8948 17.225 30.6656L4.33437 17.775C4.10521 17.5458 3.95052 17.3052 3.87031 17.0531C3.7901 16.801 3.75 16.5375 3.75 16.2625V5.8125C3.75 5.21667 3.94479 4.72396 4.33437 4.33437C4.72396 3.94479 5.21667 3.75 5.8125 3.75H16.2625C16.5375 3.75 16.8125 3.7901 17.0875 3.87031C17.3625 3.95052 17.6146 4.10521 17.8438 4.33437L30.6656 17.1562C31.124 17.6146 31.3531 18.1245 31.3531 18.6859C31.3531 19.2474 31.124 19.7573 30.6656 20.2156L20.2156 30.6656C20.0323 30.849 19.8089 30.9922 19.5453 31.0953C19.2818 31.1984 19.0125 31.25 18.7375 31.25ZM18.8062 29.2562L29.2562 18.8062L16.2625 5.8125H5.8125V16.2625L18.8062 29.2562ZM9.42188 11.175C9.90312 11.175 10.3214 10.9974 10.6766 10.6422C11.0318 10.287 11.2094 9.86875 11.2094 9.3875C11.2094 8.90625 11.0318 8.48802 10.6766 8.13281C10.3214 7.7776 9.90312 7.6 9.42188 7.6C8.94063 7.6 8.5224 7.7776 8.16719 8.13281C7.81198 8.48802 7.63437 8.90625 7.63437 9.3875C7.63437 9.86875 7.81198 10.287 8.16719 10.6422C8.5224 10.9974 8.94063 11.175 9.42188 11.175Z" fill="#000066"/>
</svg>
