<svg width="25" height="26" viewBox="0 0 25 26" fill="none" xmlns="http://www.w3.org/2000/svg">
<path d="M3.44396 22.1724C2.35769 21.0689 1.51213 19.7938 0.907279 18.347C0.302426 16.9002 0 15.4166 0 13.8963C0 12.1062 0.314771 10.4693 0.944311 8.98578C1.57385 7.50221 2.51816 6.13512 3.77725 4.8845C4.64132 4.02624 5.71524 3.30284 6.99901 2.71432C8.28278 2.1258 9.79492 1.66601 11.5354 1.33497C13.2759 1.00392 15.2448 0.795488 17.442 0.709661C19.6392 0.623835 22.0833 0.666748 24.7743 0.838401C24.9718 3.48676 25.0397 5.90829 24.978 8.10299C24.9162 10.2977 24.7187 12.2656 24.3854 14.0066C24.0522 15.7477 23.5831 17.2742 22.9782 18.5861C22.3734 19.898 21.6266 20.9953 20.7378 21.8781C19.4787 23.1287 18.1209 24.0728 16.6643 24.7104C15.2077 25.348 13.6524 25.6667 11.9983 25.6667C10.2948 25.6667 8.73334 25.3786 7.31378 24.8024C5.89423 24.2261 4.60429 23.3494 3.44396 22.1724ZM7.25824 22.1724C7.87543 22.5893 8.59138 22.908 9.40608 23.1287C10.2208 23.3494 11.0849 23.4598 11.9983 23.4598C13.3068 23.4598 14.5782 23.19 15.8126 22.6506C17.047 22.1111 18.1703 21.3264 19.1825 20.2965C19.8491 19.6344 20.4169 18.77 20.8859 17.7033C21.355 16.6366 21.7377 15.3737 22.0339 13.9147C22.3302 12.4556 22.5277 10.8065 22.6264 8.96739C22.7252 7.12825 22.7252 5.1052 22.6264 2.89823C20.3058 2.84919 18.2258 2.87984 16.3866 2.99019C14.5473 3.10054 12.9241 3.30284 11.5169 3.59711C10.1097 3.89137 8.89998 4.26533 7.88778 4.71898C6.87557 5.17263 6.04853 5.7305 5.40665 6.39259C4.36975 7.44703 3.57974 8.56278 3.03661 9.73982C2.49348 10.9169 2.22191 12.1184 2.22191 13.3445C2.22191 14.5216 2.47496 15.7538 2.98106 17.0412C3.48716 18.3286 4.11053 19.3646 4.85117 20.1493C6.15963 17.7462 7.7273 15.5883 9.55421 13.6756C11.3811 11.7629 13.3191 10.2548 15.3682 9.1513C13.2204 10.9904 11.4799 12.9828 10.1467 15.1285C8.81357 17.2742 7.85074 19.6221 7.25824 22.1724Z" fill="#000066"/>
</svg>
