<svg width="29" height="27" viewBox="0 0 29 27" fill="none" xmlns="http://www.w3.org/2000/svg">
<path d="M19.933 12.9825C20.3297 12.9825 20.6622 12.8514 20.9305 12.5891C21.1988 12.3268 21.333 12.0018 21.333 11.6141C21.333 11.2264 21.1988 10.9014 20.9305 10.6391C20.6622 10.3768 20.3297 10.2457 19.933 10.2457C19.5363 10.2457 19.2038 10.3768 18.9355 10.6391C18.6672 10.9014 18.533 11.2264 18.533 11.6141C18.533 12.0018 18.6672 12.3268 18.9355 12.5891C19.2038 12.8514 19.5363 12.9825 19.933 12.9825ZM8.73301 9.56149H15.733V7.50885H8.73301V9.56149ZM3.83301 26.6667C3.13301 24.4089 2.56134 22.4703 2.11801 20.851C1.67467 19.2317 1.31884 17.8233 1.05051 16.626C0.782175 15.4286 0.595508 14.3852 0.490508 13.4957C0.385508 12.6062 0.333008 11.751 0.333008 10.9299C0.333008 8.83166 1.07967 7.05271 2.57301 5.59306C4.06634 4.13341 5.88634 3.40359 8.03301 3.40359H15.033C15.663 2.58254 16.4622 1.92113 17.4305 1.41938C18.3988 0.917625 19.4663 0.666748 20.633 0.666748C21.2163 0.666748 21.7122 0.866309 22.1205 1.26543C22.5288 1.66456 22.733 2.1492 22.733 2.71938C22.733 2.85622 22.7155 2.99306 22.6805 3.12991C22.6455 3.26675 22.6047 3.39219 22.558 3.50622C22.4647 3.7571 22.3772 4.00798 22.2955 4.25885C22.2138 4.50973 22.1497 4.78341 22.103 5.07991L25.288 8.19306H28.333V17.7378L24.378 19.0036L22.033 26.6667H14.333V23.9299H11.533V26.6667H3.83301ZM5.40801 24.6141H9.43301V21.8773H16.433V24.6141H20.458L22.663 17.4299L26.233 16.2325V10.2457H24.413L19.933 5.86675C19.9563 5.47903 20.0205 5.00578 20.1255 4.44701C20.2305 3.88824 20.3763 3.26675 20.563 2.58254C19.5597 2.83341 18.673 3.20973 17.903 3.71148C17.133 4.21324 16.573 4.79482 16.223 5.45622H8.03301C6.49301 5.45622 5.17467 5.99219 4.07801 7.06412C2.98134 8.13605 2.43301 9.42464 2.43301 10.9299C2.43301 11.8878 2.68967 13.5584 3.20301 15.9417C3.71634 18.3251 4.45134 21.2159 5.40801 24.6141Z" fill="#000066"/>
</svg>
