<svg width="29" height="29" viewBox="0 0 29 29" fill="none" xmlns="http://www.w3.org/2000/svg">
<path d="M8.45866 4.22916V2.41666H20.542V4.22916H8.45866ZM4.50137 7.85416V6.04166H24.4993V7.85416H4.50137ZM4.22949 26.5833C3.74616 26.5833 3.32324 26.4021 2.96074 26.0396C2.59824 25.6771 2.41699 25.2542 2.41699 24.7708V11.4792C2.41699 10.9958 2.59824 10.5729 2.96074 10.2104C3.32324 9.84791 3.74616 9.66666 4.22949 9.66666H24.7712C25.2545 9.66666 25.6774 9.84791 26.0399 10.2104C26.4024 10.5729 26.5837 10.9958 26.5837 11.4792V24.7708C26.5837 25.2542 26.4024 25.6771 26.0399 26.0396C25.6774 26.4021 25.2545 26.5833 24.7712 26.5833H4.22949ZM4.22949 24.7708H24.7712V11.4792H4.22949V24.7708Z" fill="#000066"/>
<path fill-rule="evenodd" clip-rule="evenodd" d="M14.25 22L14.25 13L15.75 13L15.75 22L14.25 22Z" fill="#000066"/>
<path fill-rule="evenodd" clip-rule="evenodd" d="M19.5 18.25L10.5 18.25V16.75L19.5 16.75V18.25Z" fill="#000066"/>
</svg>
