<svg width="28" height="33" viewBox="0 0 28 33" fill="none" xmlns="http://www.w3.org/2000/svg">
<path d="M16.2647 33L15.8529 28.4625H14.2059C10.2804 28.4625 6.93137 27.0737 4.15882 24.2962C1.38627 21.5188 0 18.1637 0 14.2312C0 10.2987 1.39314 6.94375 4.17941 4.16625C6.96569 1.38875 10.3353 0 14.2882 0C16.2373 0 18.0422 0.350625 19.7029 1.05188C21.3637 1.75313 22.8118 2.73625 24.0471 4.00125C25.2824 5.26625 26.25 6.75812 26.95 8.47687C27.65 10.1956 28 12.0725 28 14.1075C28 17.7925 26.9637 21.3469 24.8912 24.7706C22.8186 28.1944 19.9431 30.9375 16.2647 33ZM14.2882 23.8012C14.7275 23.8012 15.098 23.65 15.4 23.3475C15.702 23.045 15.8529 22.6737 15.8529 22.2337C15.8529 21.7938 15.702 21.4225 15.4 21.12C15.098 20.8175 14.7275 20.6662 14.2882 20.6662C13.849 20.6662 13.4784 20.8175 13.1765 21.12C12.8745 21.4225 12.7235 21.7938 12.7235 22.2337C12.7235 22.6737 12.8745 23.045 13.1765 23.3475C13.4784 23.65 13.849 23.8012 14.2882 23.8012ZM13.1765 18.1912H15.2353C15.2353 17.5037 15.352 16.9331 15.5853 16.4794C15.8186 16.0256 16.3059 15.4275 17.0471 14.685C17.7882 13.9425 18.3098 13.2619 18.6118 12.6431C18.9137 12.0244 19.0647 11.3575 19.0647 10.6425C19.0647 9.405 18.6461 8.3875 17.8088 7.59C16.9716 6.7925 15.8529 6.39375 14.4529 6.39375C13.3 6.39375 12.2706 6.69625 11.3647 7.30125C10.4588 7.90625 9.78627 8.73125 9.34706 9.77625L11.2412 10.56C11.5431 9.845 11.9618 9.31563 12.4971 8.97188C13.0324 8.62813 13.6431 8.45625 14.3294 8.45625C15.1529 8.45625 15.798 8.65563 16.2647 9.05438C16.7314 9.45312 16.9647 9.9825 16.9647 10.6425C16.9647 11.165 16.8137 11.6944 16.5118 12.2306C16.2098 12.7669 15.6745 13.4338 14.9059 14.2312C14.1647 15.0012 13.6912 15.62 13.4853 16.0875C13.2794 16.555 13.1765 17.2562 13.1765 18.1912ZM18.3235 25.9875V28.545C20.5745 26.6475 22.3382 24.4131 23.6147 21.8419C24.8912 19.2706 25.5294 16.6925 25.5294 14.1075C25.5294 10.6975 24.4657 7.90625 22.3382 5.73375C20.2108 3.56125 17.5275 2.475 14.2882 2.475C10.9941 2.475 8.20098 3.62313 5.90882 5.91937C3.61667 8.21562 2.47059 10.9862 2.47059 14.2312C2.47059 17.4762 3.61667 20.2469 5.90882 22.5431C8.20098 24.8394 10.9667 25.9875 14.2059 25.9875H18.3235Z" fill="white"/>
</svg>
