<svg width="30" height="30" viewBox="0 0 30 30" fill="none" xmlns="http://www.w3.org/2000/svg">
<path fill-rule="evenodd" clip-rule="evenodd" d="M14.5004 1.25C14.8254 1.25 15.1133 1.45922 15.2137 1.76824L18.0763 10.5783H27.3397C27.6646 10.5783 27.9526 10.7875 28.053 11.0965C28.1534 11.4055 28.0434 11.7441 27.7806 11.935L20.2863 17.3799L23.1488 26.19C23.2492 26.499 23.1393 26.8375 22.8764 27.0285C22.6135 27.2195 22.2576 27.2195 21.9947 27.0285L14.5004 21.5836L7.00618 27.0285C6.74332 27.2195 6.38737 27.2195 6.12451 27.0285C5.86164 26.8375 5.75165 26.499 5.85205 26.19L8.71461 17.3799L1.22034 11.935C0.957479 11.7441 0.847486 11.4055 0.947892 11.0965C1.0483 10.7875 1.33626 10.5783 1.66118 10.5783H10.9246L13.7872 1.76824C13.8876 1.45922 14.1755 1.25 14.5004 1.25ZM14.5004 4.42705L12.1828 11.56C12.0824 11.8691 11.7944 12.0783 11.4695 12.0783H3.96945L10.0371 16.4867C10.3 16.6777 10.41 17.0162 10.3096 17.3252L7.99193 24.4582L14.0596 20.0498C14.3225 19.8588 14.6784 19.8588 14.9413 20.0498L21.009 24.4582L18.6913 17.3252C18.5909 17.0162 18.7009 16.6777 18.9638 16.4867L25.0314 12.0783H17.5314C17.2065 12.0783 16.9185 11.8691 16.8181 11.56L14.5004 4.42705Z" fill="#000066"/>
</svg>
