<svg width="31" height="26" viewBox="0 0 31 26" fill="none" xmlns="http://www.w3.org/2000/svg">
<path d="M12.5755 11.7782C10.9151 11.7782 9.5566 11.2519 8.5 10.1992C7.4434 9.14662 6.91509 7.79323 6.91509 6.1391C6.91509 4.48496 7.4434 3.13158 8.5 2.07895C9.5566 1.02632 10.9151 0.5 12.5755 0.5C14.2358 0.5 15.5943 1.02632 16.6509 2.07895C17.7075 3.13158 18.2358 4.48496 18.2358 6.1391C18.2358 7.79323 17.7075 9.14662 16.6509 10.1992C15.5943 11.2519 14.2358 11.7782 12.5755 11.7782ZM0.5 23.8459V20.312C0.5 19.4348 0.720126 18.6454 1.16038 17.9436C1.60063 17.2419 2.23585 16.703 3.06604 16.3271C4.87736 15.5251 6.5566 14.9486 8.10377 14.5977C9.65094 14.2469 11.1415 14.0714 12.5755 14.0714C12.7013 14.0714 12.8459 14.0714 13.0094 14.0714C13.173 14.0714 13.3176 14.0714 13.4434 14.0714C13.2925 14.4223 13.1792 14.7669 13.1038 15.1053C13.0283 15.4436 12.9654 15.8509 12.9151 16.3271H12.5755C11.1164 16.3271 9.68868 16.4837 8.29245 16.797C6.89623 17.1103 5.45598 17.6303 3.9717 18.3571C3.56918 18.5576 3.2673 18.8396 3.06604 19.203C2.86478 19.5664 2.76415 19.9361 2.76415 20.312V21.5902H12.9151C13.0409 22.0414 13.1918 22.4486 13.3679 22.812C13.544 23.1754 13.7579 23.5201 14.0094 23.8459H0.5ZM22.6509 25.5L22.2736 23.0188C21.8459 22.8935 21.4119 22.7118 20.9717 22.4737C20.5314 22.2356 20.1604 21.9662 19.8585 21.6654L17.783 22.1165L16.8396 20.5376L18.6132 18.8835C18.5629 18.6579 18.5377 18.3446 18.5377 17.9436C18.5377 17.5426 18.5629 17.2293 18.6132 17.0038L16.8396 15.3496L17.783 13.7707L19.8585 14.2218C20.1604 13.9211 20.5314 13.6516 20.9717 13.4135C21.4119 13.1754 21.8459 12.9937 22.2736 12.8684L22.6509 10.3872H24.6887L25.066 12.8684C25.4937 12.9937 25.9277 13.1754 26.3679 13.4135C26.8082 13.6516 27.1792 13.9211 27.4811 14.2218L29.5566 13.7707L30.5 15.3496L28.7264 17.0038C28.7767 17.2293 28.8019 17.5426 28.8019 17.9436C28.8019 18.3446 28.7767 18.6579 28.7264 18.8835L30.5 20.5376L29.5566 22.1165L27.4811 21.6654C27.1792 21.9662 26.8082 22.2356 26.3679 22.4737C25.9277 22.7118 25.4937 22.8935 25.066 23.0188L24.6887 25.5H22.6509ZM23.6698 20.9511C24.5755 20.9511 25.305 20.6754 25.8585 20.1241C26.4119 19.5727 26.6887 18.8459 26.6887 17.9436C26.6887 17.0414 26.4119 16.3145 25.8585 15.7632C25.305 15.2118 24.5755 14.9361 23.6698 14.9361C22.7642 14.9361 22.0346 15.2118 21.4811 15.7632C20.9277 16.3145 20.6509 17.0414 20.6509 17.9436C20.6509 18.8459 20.9277 19.5727 21.4811 20.1241C22.0346 20.6754 22.7642 20.9511 23.6698 20.9511ZM12.5755 9.52256C13.5566 9.52256 14.3679 9.20301 15.0094 8.56391C15.6509 7.92481 15.9717 7.11654 15.9717 6.1391C15.9717 5.16165 15.6509 4.35338 15.0094 3.71429C14.3679 3.07519 13.5566 2.75564 12.5755 2.75564C11.5943 2.75564 10.783 3.07519 10.1415 3.71429C9.5 4.35338 9.17924 5.16165 9.17924 6.1391C9.17924 7.11654 9.5 7.92481 10.1415 8.56391C10.783 9.20301 11.5943 9.52256 12.5755 9.52256Z" fill="#000066"/>
</svg>
