<svg width="180" height="70" fill="none" xmlns="http://www.w3.org/2000/svg"><path d="M123.293 59.835V28.932c0-.129.107-.234.238-.234h23.237c.132 0 .239.105.239.234v4.46a.237.237 0 01-.239.234h-17.855v8.158h15.799c.131 0 .238.105.238.233v4.461a.236.236 0 01-.238.234h-15.799v8.426h18.084c.132 0 .239.105.239.234v4.46a.237.237 0 01-.239.234h-23.466a.232.232 0 01-.238-.231zm-12.184 8.907v-5.157a.04.04 0 01.04-.039h3.877c.022 0 .039.018.039.039v.744a.039.039 0 01-.039.039h-2.98v1.36h2.636c.022 0 .039.018.039.039v.744a.039.039 0 01-.039.038h-2.636v1.406h3.018c.022 0 .039.017.039.039v.744a.039.039 0 01-.039.038h-3.917c-.02.004-.038-.013-.038-.034zm-14.229.128c-.61 0-1.119-.199-1.525-.597a1.966 1.966 0 01-.61-1.46c0-.572.206-1.06.618-1.461.412-.401.922-.602 1.532-.602s1.12.2 1.53.598c.409.399.613.888.613 1.466 0 .568-.206 1.053-.617 1.455-.412.4-.926.602-1.54.602zm.015-.785c.366 0 .661-.122.885-.366.223-.245.336-.547.336-.905a1.26 1.26 0 00-.351-.901 1.166 1.166 0 00-.885-.371c-.361 0-.653.122-.876.367a1.292 1.292 0 00-.336.905c0 .349.116.648.35.897.234.25.526.374.877.374zm3.972.695v-3.172h-.511v-.756h.511v-.284c0-.439.11-.765.328-.98.214-.21.516-.313.908-.313.258 0 .508.035.748.105v.763a1.754 1.754 0 00-.542-.097c-.357 0-.534.2-.534.598v.216h1.067v.748h-1.052v3.172h-.923zm4.699.068c-.772 0-1.16-.387-1.16-1.159v-2.08h-.51v-.777h.51v-1.084h.923v1.084h1.082v.778h-1.082v1.937c0 .33.165.494.496.494.197 0 .389-.045.571-.134v.74c-.243.133-.521.2-.83.2zm11.232-.068v-3.949h.922v.614c.32-.464.74-.696 1.259-.696.447 0 .798.137 1.053.412.254.273.38.643.38 1.106v2.513h-.922v-2.244c0-.31-.075-.547-.225-.715-.151-.167-.362-.251-.637-.251a.872.872 0 00-.656.262c-.168.174-.252.413-.252.717v2.229h-.922v.002zm7.258.09c-.589 0-1.081-.19-1.475-.575-.394-.384-.591-.88-.591-1.488 0-.574.186-1.06.557-1.46.371-.398.841-.597 1.41-.597.61 0 1.084.203 1.423.61.339.406.507.911.507 1.515 0 .11-.006.194-.015.254h-2.959c.05.313.18.559.389.736.208.176.464.265.769.265.397 0 .76-.156 1.091-.471l.542.471c-.418.493-.966.74-1.648.74zm-1.151-2.34h2.066a1.253 1.253 0 00-.313-.749c-.178-.194-.415-.29-.709-.29a.943.943 0 00-.702.287 1.279 1.279 0 00-.342.751zm4.599 2.25v-3.949h.922v.89c.285-.673.761-.995 1.427-.964v.956h-.053c-.417 0-.749.133-.998.4-.25.267-.374.655-.374 1.163v1.503h-.924v.001zm5.514 1.212c-.671 0-1.271-.157-1.799-.472l.342-.68c.458.28.935.419 1.434.419.412 0 .727-.104.945-.311.219-.207.328-.508.328-.901v-.307c-.38.484-.853.725-1.418.725-.499 0-.928-.17-1.289-.508-.361-.34-.541-.791-.541-1.354 0-.559.181-1.008.544-1.346a1.82 1.82 0 011.284-.51c.56 0 1.03.225 1.411.674v-.591h.922v3.141c0 .658-.17 1.155-.51 1.488-.359.356-.911.533-1.653.533zm.076-2.288c.325 0 .604-.104.834-.31.232-.208.347-.471.347-.79a.999.999 0 00-.347-.785 1.214 1.214 0 00-.834-.307c-.325 0-.598.1-.816.303-.218.201-.328.467-.328.796 0 .318.111.58.332.785.221.206.492.308.812.308zm4.75 2.296c-.336 0-.653-.08-.954-.24l.313-.673c.189.1.369.15.542.15a.515.515 0 00.328-.1c.087-.068.168-.187.244-.355l-1.677-3.95h.983l1.144 2.932 1.044-2.931h.961l-1.602 4.06c-.162.404-.342.69-.542.857-.197.166-.459.25-.784.25zm13.658 0c-.336 0-.653-.08-.954-.24l.313-.673c.189.1.369.15.542.15a.515.515 0 00.328-.1c.087-.068.168-.187.244-.355l-1.677-3.95h.983l1.144 2.932 1.044-2.931h.961l-1.601 4.06c-.163.404-.343.69-.542.857-.198.166-.46.25-.785.25zm5.637-1.144c-.63 0-1.2-.197-1.708-.591l.412-.614c.437.324.876.486 1.319.486.198 0 .352-.038.462-.115a.374.374 0 00.164-.326c0-.07-.019-.13-.057-.183a.525.525 0 00-.202-.146 1.779 1.779 0 00-.244-.097l-.328-.097-.069-.023a3.05 3.05 0 01-.693-.268 1.22 1.22 0 01-.297-.213.958.958 0 01-.191-.295 1.019 1.019 0 01-.076-.404c0-.364.136-.655.408-.876.272-.219.614-.33 1.025-.33.523 0 1.017.151 1.48.45l-.366.643c-.417-.25-.795-.373-1.137-.373-.177 0-.317.037-.415.111a.355.355 0 00-.149.3c0 .084.044.162.132.23a.96.96 0 00.267.153c.09.034.233.081.431.146a.137.137 0 00.038.015.12.12 0 00.038.008c.177.055.328.11.45.16.122.053.25.124.384.213.135.09.237.201.309.333a.956.956 0 01.107.46c0 .398-.139.705-.42.919-.279.217-.638.324-1.074.324zm4.39-.008c-.772 0-1.16-.387-1.16-1.159v-2.08h-.511v-.777h.511v-1.084h.923v1.084h1.082v.778h-1.082v1.937c0 .33.165.494.496.494.197 0 .388-.045.571-.134v.74c-.244.133-.52.2-.83.2zm4.195.022c-.589 0-1.081-.19-1.475-.575-.394-.384-.591-.88-.591-1.488 0-.574.186-1.06.557-1.46.371-.398.841-.597 1.41-.597.61 0 1.084.203 1.423.61.339.406.507.911.507 1.515 0 .11-.006.194-.015.254h-2.959c.05.313.18.559.389.736.208.176.464.265.769.265.397 0 .76-.156 1.091-.471l.542.471c-.418.493-.968.74-1.648.74zm-1.151-2.34h2.066a1.253 1.253 0 00-.313-.749c-.178-.194-.415-.29-.709-.29a.943.943 0 00-.702.287 1.267 1.267 0 00-.342.751zm4.598 2.25v-3.949h.922v.598c.336-.453.746-.68 1.228-.68.559 0 .958.231 1.198.696.36-.464.815-.696 1.365-.696.442 0 .789.131 1.038.396.249.264.374.635.374 1.115v2.52h-.923v-2.244c0-.314-.072-.554-.214-.718-.142-.164-.343-.247-.603-.247a.815.815 0 00-.626.258c-.157.172-.235.413-.235.722v2.228h-.923v-2.251c0-.304-.072-.54-.214-.707-.142-.167-.343-.251-.603-.251a.802.802 0 00-.626.266c-.157.176-.236.417-.236.721v2.222h-.922v.001zm9.309.076c-.63 0-1.2-.197-1.709-.591l.412-.614c.438.324.877.486 1.32.486.198 0 .352-.038.462-.115a.374.374 0 00.164-.326c0-.07-.019-.13-.057-.183a.525.525 0 00-.202-.146 1.779 1.779 0 00-.244-.097l-.328-.097-.069-.023a3.043 3.043 0 01-.693-.268 1.22 1.22 0 01-.297-.213 1.002 1.002 0 01-.267-.699c0-.364.135-.655.408-.876.272-.219.613-.33 1.025-.33.523 0 1.016.151 1.48.45l-.366.643c-.417-.25-.795-.373-1.137-.373-.177 0-.317.037-.416.111a.355.355 0 00-.149.3c0 .084.045.162.133.23a.96.96 0 00.267.153c.089.034.233.081.431.146a.137.137 0 00.038.015.12.12 0 00.038.008c.177.055.328.11.449.16.122.053.251.124.385.213.134.09.237.201.309.333a.956.956 0 01.107.46c0 .398-.139.705-.42.919-.278.217-.637.324-1.074.324zm-68.415-23.621c-1.66-1.405-4.258-2.524-7.791-3.36-3.017-.717-5.034-1.412-6.054-2.086-1.001-.659-1.51-1.584-1.53-2.775.035-1.164.546-2.1 1.53-2.806.763-.547 1.724-.89 2.885-1.027.255-.025.52-.04.793-.046 1.918-.048 5.909-.12 6.962 2.09.141.292.229.627.253 1.006h5.443c0-1.478-.313-2.69-.849-3.68l-.002-.006c-1.489-3.135-4.788-4.04-8.726-4.259a26.374 26.374 0 00-2.116-.06h-.372c-1.842 0-3.492.242-4.953.731-1.275.405-2.411.998-3.408 1.823-2.042 1.688-3.06 3.876-3.06 6.566a5 5 0 000 .145v.1c0 2.54.829 4.51 2.49 5.916 1.66 1.405 4.257 2.525 7.79 3.36 3.016.718 5.035 1.413 6.055 2.086.99.65 1.498 1.56 1.531 2.73v.03c-.031 1.17-.541 2.112-1.531 2.819-.763.547-1.723.89-2.884 1.028-.255.024-.52.04-.794.047-1.917.047-5.903.117-6.96-2.086a2.692 2.692 0 01-.256-1.011h-5.44c0 1.481.314 2.693.85 3.684.002.003.002.007.003.01 1.497 3.14 4.815 4.04 8.772 4.254l.045.003c.7.046 1.37.06 1.977.053.138.003.276.003.415.003 1.875 0 3.553-.254 5.032-.759 1.242-.404 2.353-.99 3.33-1.798 2.042-1.687 3.062-3.876 3.062-6.565l-.001-.144.001-.1c-.001-2.539-.832-4.512-2.492-5.916zm67.444 0c-1.661-1.405-4.258-2.524-7.791-3.36-3.017-.717-5.035-1.412-6.055-2.086-1.001-.659-1.51-1.584-1.529-2.775.035-1.164.546-2.1 1.529-2.806.763-.547 1.725-.89 2.886-1.027.254-.025.519-.04.792-.046 1.919-.048 5.91-.12 6.962 2.09.141.292.229.627.254 1.006h5.442c0-1.478-.313-2.69-.848-3.68l-.003-.006c-1.489-3.135-4.788-4.04-8.726-4.259a26.35 26.35 0 00-2.116-.06h-.371c-1.843 0-3.493.242-4.953.731-1.275.405-2.412.998-3.409 1.823-2.042 1.688-3.06 3.876-3.06 6.566a7 7 0 00.001.145l-.001.1c0 2.54.829 4.51 2.49 5.916 1.661 1.405 4.258 2.525 7.791 3.36 3.016.718 5.034 1.413 6.054 2.086.991.65 1.499 1.56 1.531 2.73v.03c-.031 1.17-.54 2.112-1.531 2.819-.762.547-1.723.89-2.884 1.028-.255.024-.52.04-.794.047-1.917.047-5.902.117-6.959-2.086a2.69 2.69 0 01-.256-1.011h-5.441c0 1.481.314 2.693.849 3.684.003.003.003.007.005.01 1.497 3.14 4.814 4.04 8.772 4.254a25.767 25.767 0 002.021.056c.138.003.276.003.416.003 1.875 0 3.552-.254 5.031-.759 1.243-.404 2.354-.99 3.33-1.798 2.042-1.687 3.062-3.876 3.062-6.565l-.001-.144.001-.1c-.001-2.539-.832-4.512-2.491-5.916zM92.843 66.316c-.293-.248-.75-.444-1.371-.592-.532-.126-.886-.248-1.065-.367a.567.567 0 01-.27-.489.603.603 0 01.27-.493c.134-.095.303-.156.508-.18.044-.004.09-.007.14-.008.336-.008 1.04-.022 1.224.368.024.052.04.11.045.177h.957c0-.26-.055-.474-.149-.647v-.002c-.261-.551-.842-.71-1.535-.75a4.556 4.556 0 00-.372-.01h-.065c-.324 0-.615.043-.871.129a1.76 1.76 0 00-.6.322 1.43 1.43 0 00-.54 1.154v.043c0 .446.147.793.438 1.04.293.247.75.444 1.371.592.531.126.886.248 1.065.366a.563.563 0 01.27.481v.005a.6.6 0 01-.27.496 1.078 1.078 0 01-.508.18 2.285 2.285 0 01-.14.009c-.337.008-1.039.02-1.224-.367a.453.453 0 01-.045-.178h-.957a1.351 1.351 0 00.15.65c.264.553.847.71 1.544.75h.008c.123.007.241.01.348.008h.073c.33 0 .625-.045.886-.132.218-.072.415-.174.587-.317a1.43 1.43 0 00.54-1.154v-.043c-.004-.448-.15-.794-.442-1.041zm55.827 0c-.293-.248-.75-.444-1.371-.592-.531-.126-.886-.248-1.065-.367a.567.567 0 01-.27-.489.603.603 0 01.27-.493c.134-.095.303-.156.508-.18a2.04 2.04 0 01.139-.008c.338-.008 1.041-.022 1.225.368.024.052.041.11.045.177h.958c0-.26-.056-.474-.149-.647v-.002c-.262-.551-.843-.71-1.535-.75a4.565 4.565 0 00-.373-.01h-.065a2.72 2.72 0 00-.871.129 1.757 1.757 0 00-.6.322 1.43 1.43 0 00-.539 1.154v.043c0 .446.146.793.437 1.04.293.247.749.444 1.371.592.531.126.886.248 1.065.366a.564.564 0 01.27.481v.005a.6.6 0 01-.27.496 1.075 1.075 0 01-.508.18 2.288 2.288 0 01-.14.009c-.337.008-1.039.02-1.224-.367a.45.45 0 01-.045-.178h-.956a1.344 1.344 0 00.15.65c.263.553.847.71 1.543.75h.008a4.5 4.5 0 00.348.008h.073c.331 0 .625-.045.886-.132.219-.072.415-.174.587-.317a1.43 1.43 0 00.539-1.154v-.043c-.004-.448-.149-.794-.441-1.041z" fill="#006"/><path d="M82.213 32.105v36.766H19.147l.95-1.114 62.116-35.652z" fill="#0C0"/><path d="M31.394 17.276a.707.707 0 01-.615-.352L24.67 6.308a.686.686 0 01.268-.943c.34-.187.77-.07.962.263l6.109 10.616a.686.686 0 01-.268.943.724.724 0 01-.347.089zm13.7-4.588a.702.702 0 01-.698-.593l-1.071-7.236a.694.694 0 01.597-.784.702.702 0 01.8.586l1.071 7.236a.694.694 0 01-.699.79zm14.468.578a.691.691 0 01-.688-.846L61.652.537a.704.704 0 01.846-.52c.38.085.617.457.53.83l-2.78 11.881a.705.705 0 01-.686.537zm13.273 5.663a.713.713 0 01-.396-.12.683.683 0 01-.188-.96l4.152-6.017a.713.713 0 01.98-.185.683.683 0 01.188.961l-4.152 6.017a.705.705 0 01-.584.304zm-53.35 7.935a.715.715 0 01-.447-.156l-5.763-4.64a.683.683 0 01-.098-.974.715.715 0 01.993-.096l5.763 4.64a.683.683 0 01.098.974.71.71 0 01-.546.252zm-6.972 12.444a.71.71 0 01-.22-.034L.484 35.466a.69.69 0 01-.45-.875.71.71 0 01.892-.44l11.807 3.807a.69.69 0 01-.221 1.35zM3.196 53.76a.701.701 0 01-.705-.656.697.697 0 01.668-.727l7.397-.378a.7.7 0 01.741.656.697.697 0 01-.668.726l-7.397.378-.036.001z" fill="#006"/><path d="M81.555 30.443l-.748.426-62.08 35.39-.748.427c-.002-.001-.002-.003-.002-.004-.06-.165-1.978-5.484-2.543-8.13-.573-2.69-1.786-11.377-.49-14.808 1.295-3.432 3.054-11.704 9.124-17.57 6.072-5.867 10.68-10.16 24.673-11.686 13.994-1.525 24.004 7.796 25.287 8.308 1.281.511 6.843 7.223 6.843 7.223l.684.424z" fill="#FF0"/><path d="M81.555 30.443l-.748.426C70.34 15.202 49.205 10.315 32.675 19.745c-16.518 9.424-22.64 29.848-13.948 46.515l-.748.426c-.002-.001-.002-.003-.002-.004-4.301-8.226-5.214-17.658-2.571-26.558 2.653-8.935 8.632-16.431 16.836-21.111 8.207-4.683 17.81-6.073 27.043-3.914 9.2 2.152 17.108 7.601 22.27 15.344z" fill="#006"/><path d="M71.05 39.218L52.996 68.87h29.218l-.007-36.587-10.969 6.262-.188.672z" fill="#0F0"/><path d="M82.215 64.394V63.3l-1.594.907-10.301-8.795 11.895-6.796v-1.124l-10.283-8.779 10.283-5.874V31.74L58.18 45.472l-25.363 14.49L18.7 68.03l.45.842 13.855-7.917 9.272 7.917h1.473l-9.863-8.42 11.797-6.74 10.302 8.795-11.142 6.366h1.921l9.99-5.708 6.2 5.293.497.415h1.47l-7.28-6.215 11.798-6.74 10.302 8.796-7.282 4.159h1.921l6.13-3.501 1.706 1.45V65.57l-.822-.703.82-.472zm-.865-16.381l-11.8 6.74-10.3-8.794 11.8-6.742 10.3 8.796zM56.871 61.998l-10.302-8.795 11.798-6.74 10.3 8.796-11.796 6.74z" fill="#006"/></svg>