<?xml version="1.0" encoding="utf-8"?><svg xmlns="http://www.w3.org/2000/svg" xmlns:xlink="http://www.w3.org/1999/xlink"><symbol viewBox="0 0 24 24" id="arrow-next" xmlns="http://www.w3.org/2000/svg"><path fill-rule="evenodd" clip-rule="evenodd" d="M11.509 1.438l9.551 9.506c.587.583.587 1.529 0 2.112l-9.551 9.507a1.506 1.506 0 01-2.123 0 1.489 1.489 0 010-2.113l6.99-6.956H4c-.829 0-1.501-.669-1.501-1.494s.672-1.494 1.5-1.494h12.375L9.385 3.55a1.489 1.489 0 010-2.112 1.506 1.506 0 012.124 0z"/></symbol><symbol viewBox="0 0 24 24" id="arrow-prev" xmlns="http://www.w3.org/2000/svg"><path fill-rule="evenodd" clip-rule="evenodd" d="M12.491 22.563L2.94 13.056a1.489 1.489 0 010-2.112l9.551-9.506a1.506 1.506 0 012.123 0c.586.583.586 1.529 0 2.112l-6.99 6.956H20c.829 0 1.501.669 1.501 1.494s-.672 1.494-1.5 1.494H7.623l6.99 6.956c.586.583.586 1.53 0 2.113a1.506 1.506 0 01-2.123 0z"/></symbol><symbol viewBox="0 0 32 32" id="arrow-right" xmlns="http://www.w3.org/2000/svg"><path fill-rule="evenodd" clip-rule="evenodd" d="M18.515 5.438l9.546 9.506a1.49 1.49 0 010 2.112l-9.546 9.506a1.505 1.505 0 01-2.122 0 1.49 1.49 0 010-2.112l6.986-6.956H5c-.828 0-1.5-.669-1.5-1.494s.672-1.494 1.5-1.494h18.379L16.393 7.55a1.49 1.49 0 010-2.112 1.504 1.504 0 012.122 0z"/></symbol><symbol viewBox="0 0 34 34" id="calculator" xmlns="http://www.w3.org/2000/svg"><path d="M8.535 12.573h6.942v-1.77H8.535v1.77zm10.2 12.112h7.12V22.95h-7.12v1.735zm0-3.79h7.12v-1.77h-7.12v1.77zm-7.614 5.03h1.77v-3.117h3.117v-1.77h-3.116V17.92H11.12v3.117H8.004v1.77h3.117v3.117zm8.925-10.802l2.16-2.16 2.16 2.16 1.276-1.275-2.16-2.16 2.16-2.16-1.275-1.276-2.16 2.16-2.161-2.16-1.275 1.275 2.16 2.16-2.16 2.16 1.275 1.276zM6.375 29.75c-.567 0-1.063-.212-1.487-.637-.425-.425-.638-.921-.638-1.488V6.375c0-.567.213-1.063.638-1.487.425-.425.92-.638 1.487-.638h21.25c.567 0 1.063.213 1.488.638.425.425.637.92.637 1.487v21.25c0 .567-.212 1.063-.637 1.488-.425.425-.921.637-1.488.637H6.375zm0-2.125h21.25V6.375H6.375v21.25zm0 0V6.375v21.25z"/></symbol><symbol viewBox="0 0 29 29" id="coin" xmlns="http://www.w3.org/2000/svg"><path d="M14.333 28.833c-2.376 0-4.667-.7-6.873-2.1-2.206-1.4-3.945-3.001-5.218-4.804v4.359H.333V18.65h7.636v1.91H3.61c1.082 1.633 2.625 3.102 4.63 4.406 2.004 1.305 4.035 1.957 6.093 1.957 1.655 0 3.219-.318 4.693-.954a12.249 12.249 0 003.85-2.594 12.251 12.251 0 002.593-3.85c.637-1.474.955-3.038.955-4.693h1.909c0 1.93-.366 3.744-1.098 5.441a14.17 14.17 0 01-3.006 4.455 14.17 14.17 0 01-4.455 3.006c-1.697.732-3.51 1.098-5.441 1.098zm-14-14c0-1.93.366-3.744 1.098-5.44a14.17 14.17 0 013.007-4.455A14.17 14.17 0 018.892 1.93c1.697-.732 3.51-1.098 5.441-1.098 2.376 0 4.667.7 6.873 2.1 2.206 1.4 3.945 3.002 5.218 4.805v-4.36h1.909v7.637h-7.636V9.106h4.359c-1.082-1.633-2.62-3.102-4.614-4.407-1.994-1.304-4.03-1.957-6.109-1.957-1.655 0-3.219.319-4.693.955A12.251 12.251 0 005.79 6.29a12.25 12.25 0 00-2.593 3.85 11.715 11.715 0 00-.955 4.693H.333zm13.077 9.132h1.75v-1.654c1.294-.149 2.302-.547 3.023-1.194.721-.647 1.082-1.511 1.082-2.593s-.308-1.962-.923-2.64c-.615-.68-1.654-1.327-3.118-1.942-1.23-.509-2.121-.965-2.673-1.368-.551-.403-.827-.944-.827-1.623 0-.657.239-1.177.716-1.559.477-.381 1.13-.572 1.957-.572.636 0 1.188.148 1.654.445.467.297.86.742 1.178 1.336l1.527-.731c-.36-.743-.838-1.326-1.432-1.75-.594-.425-1.294-.68-2.1-.764V5.733h-1.75v1.623c-1.082.148-1.936.546-2.561 1.193-.626.647-.94 1.448-.94 2.402 0 1.04.32 1.867.955 2.482.637.615 1.591 1.188 2.864 1.718 1.421.594 2.397 1.13 2.927 1.607.53.477.796 1.066.796 1.766 0 .679-.281 1.225-.843 1.639-.563.413-1.268.62-2.116.62a3.685 3.685 0 01-2.212-.7c-.647-.466-1.097-1.103-1.352-1.909l-1.623.541c.446.976.992 1.745 1.639 2.307.647.562 1.448.97 2.402 1.225v1.718z"/></symbol><symbol viewBox="0 0 31 31" id="factory" xmlns="http://www.w3.org/2000/svg"><path d="M2.583 28.417V12.884l9.042-3.842v2.583l6.458-2.616v3.908h10.333v15.5H2.583zm1.938-1.938h21.958V14.854H16.145v-2.97l-6.458 2.583v-2.551l-5.166 2.292V26.48zm10.01-3.229h1.937v-5.167h-1.937v5.167zm-5.167 0h1.938v-5.167H9.364v5.167zm10.334 0h1.937v-5.167h-1.937v5.167zm8.718-10.333h-5.812l1.291-10.334h3.23l1.291 10.334zM4.521 26.479h21.958H4.52z"/></symbol><symbol viewBox="0 0 32 32" id="hangar" xmlns="http://www.w3.org/2000/svg"><path d="M4.667 26h4V15.333h14.667V26h4V10.667L16 6.133 4.667 10.667V26zm-2 2V9.333L16 4l13.334 5.333V28h-8V17.333H10.667V28h-8zm9.667 0v-2h2v2h-2zM15 24v-2h2v2h-2zm2.667 4v-2h2v2h-2zm-9-12.667h14.667H8.667z"/></symbol><symbol viewBox="0 0 33 33" id="label" xmlns="http://www.w3.org/2000/svg"><path d="M18.738 31.25c-.276 0-.539-.04-.791-.12a1.804 1.804 0 01-.722-.464L4.335 17.775c-.23-.23-.384-.47-.465-.722a2.592 2.592 0 01-.12-.79V5.813c0-.596.195-1.089.584-1.479.39-.39.883-.584 1.479-.584h10.45c.274 0 .55.04.824.12.276.08.528.235.757.464l12.822 12.822c.458.459.687.969.687 1.53s-.229 1.071-.687 1.53l-10.45 10.45a1.925 1.925 0 01-.67.43 2.2 2.2 0 01-.808.154zm.068-1.994l10.45-10.45L16.262 5.812H5.813v10.45l12.994 12.994zM9.422 11.175c.481 0 .9-.178 1.255-.533.355-.355.532-.773.532-1.255 0-.48-.177-.899-.532-1.254A1.717 1.717 0 009.422 7.6c-.481 0-.9.178-1.255.533a1.717 1.717 0 00-.533 1.255c0 .48.178.899.533 1.254.355.355.774.533 1.255.533z"/></symbol><symbol viewBox="0 0 25 26" id="leaf" xmlns="http://www.w3.org/2000/svg"><path d="M3.444 22.172a11.995 11.995 0 01-2.537-3.825A11.437 11.437 0 010 13.897c0-1.79.315-3.428.944-4.911.63-1.484 1.574-2.85 2.833-4.102.864-.858 1.938-1.581 3.222-2.17 1.284-.588 2.796-1.048 4.536-1.379 1.74-.331 3.71-.54 5.907-.625 2.197-.086 4.641-.043 7.332.128.198 2.649.266 5.07.204 7.265-.062 2.195-.26 4.163-.593 5.904-.333 1.74-.802 3.267-1.407 4.58-.605 1.311-1.351 2.408-2.24 3.291-1.26 1.25-2.617 2.195-4.074 2.832a11.507 11.507 0 01-4.666.957c-1.703 0-3.265-.288-4.684-.865-1.42-.576-2.71-1.453-3.87-2.63zm3.814 0a7.14 7.14 0 002.148.957c.815.22 1.679.33 2.592.33 1.309 0 2.58-.269 3.815-.808 1.234-.54 2.357-1.325 3.37-2.354.666-.663 1.234-1.527 1.703-2.594.469-1.066.852-2.33 1.148-3.788.296-1.46.494-3.108.592-4.948.1-1.839.1-3.862 0-6.069-2.32-.049-4.4-.018-6.24.092-1.839.11-3.462.313-4.87.607-1.406.294-2.616.668-3.628 1.122-1.012.454-1.84 1.011-2.481 1.674C4.37 7.447 3.58 8.563 3.037 9.74c-.544 1.177-.815 2.378-.815 3.604 0 1.178.253 2.41.76 3.697.505 1.288 1.129 2.324 1.87 3.108a30.289 30.289 0 014.702-6.473c1.827-1.913 3.765-3.421 5.814-4.525-2.148 1.84-3.888 3.832-5.221 5.978-1.333 2.145-2.296 4.493-2.889 7.043z"/></symbol><symbol viewBox="0 0 29 27" id="piggy-bank" xmlns="http://www.w3.org/2000/svg"><path d="M19.933 12.982c.397 0 .73-.13.997-.393.269-.262.403-.587.403-.975s-.134-.713-.402-.975a1.37 1.37 0 00-.998-.393c-.397 0-.73.13-.997.393a1.309 1.309 0 00-.403.975c0 .388.134.713.402.975.269.262.601.393.998.393zm-11.2-3.42h7V7.508h-7V9.56zm-4.9 17.105c-.7-2.258-1.272-4.197-1.715-5.816-.443-1.62-.8-3.028-1.067-4.225a31.459 31.459 0 01-.56-3.13 21.902 21.902 0 01-.158-2.566c0-2.098.747-3.877 2.24-5.337 1.493-1.46 3.313-2.19 5.46-2.19h7A7.078 7.078 0 0117.43 1.42C18.4.918 19.466.667 20.633.667c.583 0 1.08.2 1.488.598a1.957 1.957 0 01.56 1.865 2.87 2.87 0 01-.123.376c-.093.251-.18.502-.262.753-.082.25-.146.524-.193.82l3.185 3.114h3.045v9.545l-3.955 1.266-2.345 7.663h-7.7V23.93h-2.8v2.737h-7.7zm1.575-2.053h4.025v-2.737h7v2.737h4.025l2.205-7.184 3.57-1.197v-5.987h-1.82l-4.48-4.38c.023-.387.087-.86.192-1.419.105-.559.251-1.18.438-1.864-1.003.25-1.89.627-2.66 1.128-.77.502-1.33 1.084-1.68 1.745h-8.19c-1.54 0-2.858.536-3.955 1.608s-1.645 2.36-1.645 3.866c0 .958.257 2.628.77 5.012.513 2.383 1.248 5.274 2.205 8.672z"/></symbol><symbol viewBox="0 0 29 29" id="plus-in-folder" xmlns="http://www.w3.org/2000/svg"><path d="M8.459 4.23V2.416h12.083v1.812H8.459zM4.5 7.853V6.042H24.5v1.812H4.501zm-.272 18.73c-.483 0-.906-.182-1.268-.544-.363-.363-.544-.786-.544-1.27V11.48c0-.484.181-.907.544-1.27.362-.362.785-.543 1.268-.543h20.542c.483 0 .906.18 1.269.543.362.363.544.786.544 1.27v13.29c0 .484-.182.907-.544 1.27-.363.362-.785.543-1.269.543H4.23zm0-1.813h20.542V11.479H4.23v13.292z"/><path fill-rule="evenodd" clip-rule="evenodd" d="M14.25 22v-9h1.5v9h-1.5z"/><path fill-rule="evenodd" clip-rule="evenodd" d="M19.5 18.25h-9v-1.5h9v1.5z"/></symbol><symbol viewBox="0 0 28 33" id="question" xmlns="http://www.w3.org/2000/svg"><path d="M16.265 33l-.412-4.538h-1.647c-3.926 0-7.275-1.388-10.047-4.166C1.386 21.52 0 18.164 0 14.231 0 10.3 1.393 6.944 4.18 4.166 6.965 1.39 10.334 0 14.287 0c1.95 0 3.754.35 5.415 1.052a13.16 13.16 0 014.344 2.95c1.235 1.264 2.203 2.756 2.903 4.475.7 1.719 1.05 3.595 1.05 5.63 0 3.686-1.036 7.24-3.109 10.664-2.072 3.423-4.948 6.166-8.626 8.229zm-1.977-9.199c.44 0 .81-.151 1.112-.453.302-.303.453-.674.453-1.114 0-.44-.151-.812-.453-1.114a1.51 1.51 0 00-1.112-.454c-.439 0-.81.151-1.111.454a1.516 1.516 0 00-.454 1.114c0 .44.151.811.454 1.113a1.51 1.51 0 001.111.454zm-1.111-5.61h2.058c0-.687.117-1.258.35-1.712.234-.453.72-1.051 1.462-1.794.741-.742 1.263-1.423 1.565-2.042a4.501 4.501 0 00.453-2c0-1.238-.419-2.256-1.256-3.053-.837-.797-1.956-1.196-3.356-1.196-1.153 0-2.182.302-3.088.907-.906.605-1.579 1.43-2.018 2.475l1.894.784c.302-.715.72-1.244 1.256-1.588.535-.344 1.146-.516 1.832-.516.824 0 1.469.2 1.936.598.466.4.7.928.7 1.588 0 .523-.151 1.052-.453 1.589-.302.536-.838 1.203-1.606 2-.741.77-1.215 1.389-1.42 1.856-.207.468-.31 1.17-.31 2.104zm5.146 7.797v2.557c2.252-1.898 4.015-4.132 5.292-6.703 1.276-2.571 1.914-5.15 1.914-7.734 0-3.41-1.063-6.202-3.19-8.374-2.128-2.173-4.811-3.259-8.05-3.259-3.295 0-6.088 1.148-8.38 3.444-2.292 2.297-3.438 5.067-3.438 8.312 0 3.245 1.146 6.016 3.438 8.312 2.292 2.296 5.058 3.445 8.297 3.445h4.117z"/></symbol><symbol viewBox="0 0 30 30" id="star" xmlns="http://www.w3.org/2000/svg"><path fill-rule="evenodd" clip-rule="evenodd" d="M14.5 1.25a.75.75 0 01.714.518l2.862 8.81h9.264a.75.75 0 01.44 1.357l-7.494 5.445 2.863 8.81a.75.75 0 01-1.154.838L14.5 21.585l-7.494 5.445a.75.75 0 01-1.154-.839l2.863-8.81-7.495-5.445a.75.75 0 01.441-1.357h9.264l2.862-8.81a.75.75 0 01.713-.518zm0 3.177l-2.317 7.133a.75.75 0 01-.713.518h-7.5l6.067 4.409a.75.75 0 01.273.838l-2.318 7.133 6.068-4.408a.75.75 0 01.881 0l6.068 4.408-2.318-7.133a.75.75 0 01.273-.838l6.067-4.409h-7.5a.75.75 0 01-.713-.518L14.5 4.427z"/></symbol><symbol viewBox="0 0 31 26" id="user-settings" xmlns="http://www.w3.org/2000/svg"><path d="M12.575 11.778c-1.66 0-3.018-.526-4.075-1.579-1.057-1.052-1.585-2.406-1.585-4.06 0-1.654.528-3.007 1.585-4.06C9.557 1.026 10.915.5 12.575.5c1.66 0 3.02.526 4.076 1.579 1.056 1.053 1.585 2.406 1.585 4.06 0 1.654-.529 3.008-1.585 4.06-1.057 1.053-2.415 1.58-4.075 1.58zM.5 23.846v-3.534c0-.877.22-1.667.66-2.368.44-.702 1.076-1.241 1.906-1.617 1.811-.802 3.49-1.378 5.038-1.73 1.547-.35 3.038-.526 4.472-.526h.867a5.83 5.83 0 00-.34 1.034c-.075.339-.138.746-.188 1.222h-.34c-1.459 0-2.886.157-4.283.47-1.396.313-2.836.833-4.32 1.56-.403.2-.705.483-.906.846a2.265 2.265 0 00-.302 1.109v1.278h10.151c.126.451.277.859.453 1.222s.39.708.641 1.034H.5zM22.65 25.5l-.376-2.481a6.705 6.705 0 01-1.302-.545 4.794 4.794 0 01-1.114-.809l-2.075.451-.943-1.578 1.773-1.654c-.05-.226-.075-.54-.075-.94 0-.401.025-.715.075-.94L16.84 15.35l.943-1.58 2.075.452c.302-.3.673-.57 1.114-.808.44-.239.874-.42 1.302-.546l.377-2.48h2.038l.377 2.48c.428.126.862.307 1.302.546.44.238.811.507 1.113.808l2.076-.451.943 1.579-1.774 1.654c.05.225.076.539.076.94 0 .4-.025.714-.076.94l1.774 1.654-.943 1.578-2.076-.45c-.302.3-.673.57-1.113.808-.44.238-.874.42-1.302.545l-.377 2.481H22.65zm1.02-4.549c.905 0 1.635-.276 2.188-.827.554-.551.83-1.278.83-2.18 0-.903-.276-1.63-.83-2.18-.553-.552-1.282-.828-2.188-.828-.906 0-1.635.276-2.189.827-.553.551-.83 1.278-.83 2.18 0 .903.277 1.63.83 2.181.554.551 1.283.827 2.189.827zM12.575 9.523c.982 0 1.793-.32 2.434-.96.642-.638.963-1.446.963-2.424 0-.977-.321-1.786-.963-2.425-.641-.639-1.452-.958-2.434-.958-.98 0-1.792.32-2.433.958-.642.64-.963 1.448-.963 2.425 0 .978.321 1.786.963 2.425.641.639 1.452.959 2.434.959z"/></symbol></svg>