<svg width="180" height="70" viewBox="0 0 180 70" fill="none" xmlns="http://www.w3.org/2000/svg">
<path d="M123.293 59.8349V28.9319C123.293 28.803 123.4 28.698 123.531 28.698H146.768C146.9 28.698 147.007 28.803 147.007 28.9319V33.3925C147.007 33.5214 146.9 33.6264 146.768 33.6264H128.913V41.7837H144.712C144.843 41.7837 144.95 41.8886 144.95 42.0175V46.4782C144.95 46.6071 144.843 46.7121 144.712 46.7121H128.913V55.1378H146.997C147.129 55.1378 147.236 55.2427 147.236 55.3716V59.8323C147.236 59.9612 147.129 60.0661 146.997 60.0661H123.531C123.4 60.0688 123.293 59.9638 123.293 59.8349Z" fill="#000066"/>
<path d="M111.109 68.7419V63.5849C111.109 63.5637 111.127 63.5464 111.149 63.5464H115.026C115.048 63.5464 115.065 63.5637 115.065 63.5849V64.329C115.065 64.3503 115.048 64.3676 115.026 64.3676H112.046V65.7282H114.682C114.704 65.7282 114.721 65.7455 114.721 65.7668V66.5109C114.721 66.5321 114.704 66.5494 114.682 66.5494H112.046V67.9552H115.064C115.086 67.9552 115.103 67.9725 115.103 67.9938V68.7379C115.103 68.7591 115.086 68.7764 115.064 68.7764H111.147C111.127 68.7804 111.109 68.7631 111.109 68.7419Z" fill="#000066"/>
<path d="M96.8802 68.8705C96.2706 68.8705 95.7612 68.6712 95.3548 68.2726C94.9483 67.8739 94.7451 67.3876 94.7451 66.8136C94.7451 66.2409 94.951 65.7532 95.3629 65.3519C95.7747 64.9506 96.2855 64.75 96.8951 64.75C97.5048 64.75 98.0142 64.9493 98.4246 65.3479C98.8338 65.7466 99.0384 66.2356 99.0384 66.8136C99.0384 67.3823 98.8324 67.8673 98.4206 68.2686C98.0087 68.6699 97.4953 68.8705 96.8802 68.8705ZM96.8951 68.0852C97.2609 68.0852 97.5562 67.9629 97.7798 67.7185C98.0033 67.474 98.1158 67.1723 98.1158 66.8136C98.1158 66.4601 97.9993 66.1598 97.7649 65.9127C97.5305 65.6655 97.2365 65.5419 96.8802 65.5419C96.5185 65.5419 96.2272 65.6642 96.0037 65.9087C95.7802 66.1532 95.6677 66.4548 95.6677 66.8136C95.6677 67.163 95.7842 67.462 96.0186 67.7105C96.2516 67.9603 96.5442 68.0852 96.8951 68.0852Z" fill="#000066"/>
<path d="M100.867 68.7802V65.6084H100.356V64.8524H100.867V64.568C100.867 64.1295 100.977 63.8027 101.195 63.5887C101.409 63.3788 101.711 63.2751 102.103 63.2751C102.361 63.2751 102.611 63.3097 102.851 63.3801V64.1428C102.653 64.0777 102.471 64.0458 102.309 64.0458C101.952 64.0458 101.775 64.2451 101.775 64.6438V64.8604H102.842V65.6084H101.79V68.7802H100.867V68.7802Z" fill="#000066"/>
<path d="M105.566 68.8478C104.794 68.8478 104.406 68.4612 104.406 67.6892V65.6096H103.896V64.8323H104.406V63.748H105.329V64.8323H106.411V65.6096H105.329V67.547C105.329 67.8765 105.494 68.0413 105.825 68.0413C106.022 68.0413 106.214 67.9961 106.396 67.9071V68.6472C106.153 68.7801 105.875 68.8478 105.566 68.8478Z" fill="#000066"/>
<path d="M116.798 68.7802V64.8312H117.72V65.4451C118.04 64.9813 118.46 64.7488 118.979 64.7488C119.426 64.7488 119.777 64.8856 120.032 65.1607C120.286 65.4344 120.412 65.8038 120.412 66.2675V68.7802H119.49V66.536C119.49 66.2264 119.415 65.9885 119.265 65.8211C119.114 65.6537 118.903 65.5699 118.628 65.5699C118.359 65.5699 118.14 65.6577 117.972 65.8317C117.804 66.0058 117.72 66.245 117.72 66.5493V68.7776H116.798V68.7802Z" fill="#000066"/>
<path d="M124.056 68.8705C123.467 68.8705 122.975 68.6791 122.581 68.2951C122.187 67.9111 121.99 67.4155 121.99 66.8069C121.99 66.2329 122.176 65.7479 122.547 65.3479C122.918 64.9493 123.388 64.75 123.957 64.75C124.567 64.75 125.041 64.9533 125.38 65.3599C125.719 65.7665 125.887 66.2714 125.887 66.8747C125.887 66.985 125.881 67.0687 125.872 67.1285H122.913C122.963 67.4421 123.093 67.6879 123.302 67.8646C123.51 68.0413 123.766 68.1304 124.071 68.1304C124.468 68.1304 124.831 67.9736 125.162 67.6587L125.704 68.1304C125.286 68.6233 124.738 68.8705 124.056 68.8705ZM122.905 66.5292H124.971C124.941 66.2249 124.837 65.9765 124.658 65.7811C124.48 65.5871 124.243 65.4901 123.949 65.4901C123.67 65.4901 123.436 65.5858 123.247 65.7785C123.061 65.9698 122.945 66.2196 122.905 66.5292Z" fill="#000066"/>
<path d="M127.504 68.7801V64.831H128.426V65.7213C128.711 65.0476 129.187 64.7261 129.853 64.7566V65.7133H129.8C129.383 65.7133 129.051 65.8462 128.802 66.1133C128.552 66.3804 128.428 66.7684 128.428 67.276V68.7788H127.504V68.7801Z" fill="#000066"/>
<path d="M133.018 69.9922C132.347 69.9922 131.747 69.8354 131.219 69.5205L131.561 68.8402C132.019 69.1192 132.496 69.2587 132.995 69.2587C133.407 69.2587 133.722 69.1551 133.94 68.9478C134.159 68.7405 134.268 68.4402 134.268 68.0469V67.7399C133.888 68.2236 133.415 68.4654 132.85 68.4654C132.351 68.4654 131.922 68.2954 131.561 67.9565C131.2 67.6177 131.02 67.1659 131.02 66.6025C131.02 66.0444 131.201 65.5953 131.564 65.2565C131.927 64.9176 132.355 64.7476 132.848 64.7476C133.408 64.7476 133.878 64.9721 134.259 65.4212V64.8299H135.181V67.9711C135.181 68.6289 135.011 69.1258 134.671 69.4594C134.312 69.8155 133.76 69.9922 133.018 69.9922ZM133.094 67.7041C133.419 67.7041 133.698 67.6004 133.928 67.3931C134.16 67.1858 134.275 66.9227 134.275 66.6038C134.275 66.2849 134.16 66.0232 133.928 65.8186C133.697 65.6139 133.419 65.5116 133.094 65.5116C132.769 65.5116 132.496 65.6126 132.278 65.8146C132.06 66.0165 131.95 66.2823 131.95 66.6105C131.95 66.9294 132.061 67.1912 132.282 67.3958C132.503 67.6018 132.774 67.7041 133.094 67.7041Z" fill="#000066"/>
<path d="M137.844 70.0001C137.508 70.0001 137.191 69.9204 136.89 69.7609L137.203 69.0872C137.392 69.1869 137.572 69.2374 137.745 69.2374C137.878 69.2374 137.986 69.2042 138.073 69.1364C138.16 69.0686 138.241 68.9504 138.317 68.7816L136.64 64.8325H137.623L138.767 67.7638L139.811 64.8325H140.772L139.17 68.8932C139.008 69.2972 138.828 69.5829 138.628 69.7503C138.431 69.9164 138.169 70.0001 137.844 70.0001Z" fill="#000066"/>
<path d="M151.502 70.0001C151.166 70.0001 150.849 69.9204 150.548 69.7609L150.861 69.0872C151.05 69.1869 151.23 69.2374 151.403 69.2374C151.536 69.2374 151.644 69.2042 151.731 69.1364C151.818 69.0686 151.899 68.9504 151.975 68.7816L150.298 64.8325H151.281L152.425 67.7638L153.469 64.8325H154.43L152.829 68.8932C152.666 69.2972 152.486 69.5829 152.287 69.7503C152.089 69.9164 151.827 70.0001 151.502 70.0001Z" fill="#000066"/>
<path d="M157.139 68.8562C156.509 68.8562 155.939 68.6595 155.431 68.2649L155.843 67.651C156.28 67.9752 156.719 68.1373 157.162 68.1373C157.36 68.1373 157.514 68.0988 157.624 68.0217C157.734 67.9446 157.788 67.8357 157.788 67.6961C157.788 67.6257 157.769 67.5659 157.731 67.5128C157.693 67.461 157.625 67.4118 157.529 67.3666C157.433 67.3214 157.352 67.2895 157.285 67.2696C157.219 67.2497 157.111 67.2178 156.957 67.1726L156.888 67.15C156.746 67.1102 156.626 67.0716 156.527 67.0344C156.428 66.9972 156.317 66.9454 156.195 66.8816C156.073 66.8165 155.974 66.7461 155.898 66.669C155.822 66.5919 155.759 66.4936 155.707 66.374C155.656 66.2544 155.631 66.1202 155.631 65.9701C155.631 65.606 155.767 65.315 156.039 65.0944C156.311 64.8752 156.653 64.7649 157.064 64.7649C157.587 64.7649 158.081 64.915 158.544 65.214L158.178 65.8571C157.761 65.6073 157.383 65.4838 157.041 65.4838C156.864 65.4838 156.724 65.521 156.626 65.5954C156.527 65.6698 156.477 65.7694 156.477 65.8943C156.477 65.9794 156.521 66.0565 156.609 66.1255C156.699 66.196 156.787 66.2465 156.876 66.2784C156.966 66.3116 157.109 66.3594 157.307 66.4245C157.316 66.4298 157.33 66.4351 157.345 66.4391C157.36 66.4444 157.373 66.4471 157.383 66.4471C157.56 66.5016 157.711 66.5561 157.833 66.6079C157.955 66.6597 158.083 66.7315 158.217 66.8205C158.352 66.9095 158.454 67.0211 158.526 67.1527C158.597 67.2842 158.633 67.4384 158.633 67.6124C158.633 68.0111 158.494 68.318 158.213 68.5319C157.934 68.7485 157.575 68.8562 157.139 68.8562Z" fill="#000066"/>
<path d="M161.529 68.8478C160.757 68.8478 160.369 68.4612 160.369 67.6892V65.6096H159.858V64.8323H160.369V63.748H161.292V64.8323H162.374V65.6096H161.292V67.547C161.292 67.8765 161.457 68.0413 161.788 68.0413C161.985 68.0413 162.176 67.9961 162.359 67.9071V68.6472C162.115 68.7801 161.839 68.8478 161.529 68.8478Z" fill="#000066"/>
<path d="M165.724 68.8705C165.135 68.8705 164.643 68.6791 164.249 68.2951C163.855 67.9111 163.658 67.4155 163.658 66.8069C163.658 66.2329 163.844 65.7479 164.215 65.3479C164.586 64.9493 165.056 64.75 165.625 64.75C166.235 64.75 166.709 64.9533 167.048 65.3599C167.387 65.7665 167.555 66.2714 167.555 66.8747C167.555 66.985 167.549 67.0687 167.54 67.1285H164.581C164.631 67.4421 164.761 67.6879 164.97 67.8646C165.178 68.0413 165.434 68.1304 165.739 68.1304C166.136 68.1304 166.499 67.9736 166.83 67.6587L167.372 68.1304C166.954 68.6233 166.404 68.8705 165.724 68.8705ZM164.573 66.5292H166.639C166.609 66.2249 166.505 65.9765 166.326 65.7811C166.148 65.5871 165.911 65.4901 165.617 65.4901C165.338 65.4901 165.104 65.5858 164.915 65.7785C164.727 65.9698 164.613 66.2196 164.573 66.5292Z" fill="#000066"/>
<path d="M169.171 68.7802V64.8312H170.093V65.4291C170.429 64.976 170.839 64.7488 171.321 64.7488C171.88 64.7488 172.279 64.98 172.519 65.4451C172.879 64.9813 173.334 64.7488 173.884 64.7488C174.326 64.7488 174.673 64.8803 174.922 65.1447C175.171 65.4092 175.296 65.7799 175.296 66.2596V68.7802H174.373V66.536C174.373 66.2224 174.301 65.9819 174.159 65.8184C174.017 65.6537 173.816 65.5713 173.556 65.5713C173.298 65.5713 173.089 65.6577 172.93 65.8291C172.773 66.0005 172.695 66.2423 172.695 66.5506V68.7789H171.772V66.528C171.772 66.2237 171.7 65.9885 171.558 65.8211C171.416 65.6537 171.215 65.5699 170.955 65.5699C170.696 65.5699 170.488 65.659 170.329 65.8357C170.172 66.0124 170.093 66.2529 170.093 66.5572V68.7789H169.171V68.7802Z" fill="#000066"/>
<path d="M178.48 68.8562C177.85 68.8562 177.28 68.6595 176.771 68.2649L177.183 67.651C177.621 67.9752 178.06 68.1373 178.503 68.1373C178.701 68.1373 178.855 68.0988 178.965 68.0217C179.075 67.9446 179.129 67.8357 179.129 67.6961C179.129 67.6257 179.11 67.5659 179.072 67.5128C179.034 67.461 178.966 67.4118 178.87 67.3666C178.774 67.3214 178.693 67.2895 178.626 67.2696C178.56 67.2497 178.451 67.2178 178.298 67.1726L178.229 67.15C178.087 67.1102 177.966 67.0716 177.867 67.0344C177.769 66.9972 177.657 66.9454 177.536 66.8816C177.414 66.8165 177.315 66.7461 177.239 66.669C177.163 66.5919 177.099 66.4936 177.048 66.374C176.996 66.2544 176.972 66.1202 176.972 65.9701C176.972 65.606 177.107 65.315 177.38 65.0944C177.652 64.8752 177.993 64.7649 178.405 64.7649C178.928 64.7649 179.421 64.915 179.885 65.214L179.519 65.8571C179.102 65.6073 178.724 65.4838 178.382 65.4838C178.205 65.4838 178.065 65.521 177.966 65.5954C177.867 65.6698 177.817 65.7694 177.817 65.8943C177.817 65.9794 177.862 66.0565 177.95 66.1255C178.04 66.196 178.128 66.2465 178.217 66.2784C178.306 66.3116 178.45 66.3594 178.648 66.4245C178.657 66.4298 178.671 66.4351 178.686 66.4391C178.701 66.4444 178.714 66.4471 178.724 66.4471C178.901 66.5016 179.052 66.5561 179.173 66.6079C179.295 66.6597 179.424 66.7315 179.558 66.8205C179.692 66.9095 179.795 67.0211 179.867 67.1527C179.938 67.2842 179.974 67.4384 179.974 67.6124C179.974 68.0111 179.835 68.318 179.554 68.5319C179.276 68.7485 178.917 68.8562 178.48 68.8562Z" fill="#000066"/>
<path d="M110.065 45.2346C108.405 43.8301 105.807 42.7113 102.274 41.8742C99.2572 41.158 97.2399 40.463 96.2198 39.7893C95.2186 39.1303 94.7092 38.2055 94.6902 37.0136C94.7255 35.8496 95.2362 34.9141 96.2198 34.2085C96.9825 33.6611 97.9444 33.3183 99.1054 33.1814C99.3601 33.1561 99.6243 33.1415 99.898 33.1349C101.816 33.0871 105.807 33.0153 106.86 35.225C107.001 35.5174 107.089 35.8522 107.113 36.2309H112.538H112.556C112.556 34.7533 112.243 33.5415 111.707 32.5516C111.706 32.5489 111.706 32.5476 111.705 32.5449C110.216 29.4104 106.917 28.5041 102.979 28.2862C102.225 28.2331 101.507 28.2198 100.863 28.2264H100.841C100.726 28.2251 100.608 28.2251 100.491 28.2251C98.6489 28.2251 96.9988 28.4683 95.5383 28.9573C94.2635 29.3625 93.1269 29.9552 92.1297 30.7803C90.0881 32.4678 89.0693 34.6563 89.0693 37.3457C89.0693 37.3936 89.0693 37.4427 89.0707 37.4906C89.0693 37.5238 89.0693 37.5583 89.0693 37.5916C89.0693 40.1308 89.8985 42.1014 91.5594 43.5072C93.2203 44.9117 95.8174 46.0319 99.3506 46.8677C102.366 47.5852 104.385 48.2801 105.405 48.9525C106.395 49.6036 106.903 50.5125 106.936 51.6831V51.7123C106.905 52.883 106.395 53.8251 105.405 54.532C104.642 55.0794 103.682 55.4223 102.521 55.5604C102.266 55.5844 102.001 55.6003 101.727 55.6069C99.8099 55.6535 95.8242 55.7239 94.7675 53.5208C94.6252 53.2271 94.5358 52.891 94.5114 52.5096H89.0883H89.0707C89.0707 53.9912 89.385 55.203 89.9201 56.1943C89.9228 56.1969 89.9228 56.2009 89.9242 56.2036C91.4212 59.3448 94.739 60.2443 98.6963 60.4583C98.7112 60.4596 98.7261 60.4609 98.741 60.4609C99.4414 60.5074 100.111 60.5207 100.718 60.5141C100.856 60.5167 100.994 60.5167 101.133 60.5167C103.008 60.5167 104.686 60.2629 106.165 59.758C107.407 59.3541 108.518 58.7681 109.495 57.9602C111.537 56.2727 112.557 54.0842 112.557 51.3948C112.557 51.3469 112.557 51.2991 112.556 51.2513C112.557 51.2181 112.557 51.1835 112.557 51.1503C112.556 48.6123 111.725 46.6391 110.065 45.2346Z" fill="#000066"/>
<path d="M177.509 45.2346C175.848 43.8301 173.251 42.7113 169.718 41.8742C166.701 41.158 164.683 40.463 163.663 39.7893C162.662 39.1303 162.153 38.2055 162.134 37.0136C162.169 35.8496 162.68 34.9141 163.663 34.2085C164.426 33.6611 165.388 33.3183 166.549 33.1814C166.803 33.1561 167.068 33.1415 167.341 33.1349C169.26 33.0871 173.251 33.0153 174.303 35.225C174.444 35.5174 174.532 35.8522 174.557 36.2309H179.981H179.999C179.999 34.7533 179.686 33.5415 179.151 32.5516C179.149 32.5489 179.149 32.5476 179.148 32.5449C177.659 29.4104 174.36 28.5041 170.422 28.2862C169.669 28.2331 168.951 28.2198 168.306 28.2264H168.284C168.169 28.2251 168.051 28.2251 167.935 28.2251C166.092 28.2251 164.442 28.4683 162.982 28.9573C161.707 29.3625 160.57 29.9552 159.573 30.7803C157.531 32.4678 156.513 34.6563 156.513 37.3457C156.513 37.3936 156.513 37.4427 156.514 37.4906C156.513 37.5238 156.513 37.5583 156.513 37.5916C156.513 40.1308 157.342 42.1014 159.003 43.5072C160.664 44.9117 163.261 46.0319 166.794 46.8677C169.81 47.5852 171.828 48.2801 172.848 48.9525C173.839 49.6036 174.347 50.5125 174.379 51.6831V51.7123C174.348 52.883 173.839 53.8251 172.848 54.532C172.086 55.0794 171.125 55.4223 169.964 55.5604C169.709 55.5844 169.444 55.6003 169.17 55.6069C167.253 55.6535 163.268 55.7239 162.211 53.5208C162.069 53.2271 161.979 52.891 161.955 52.5096H156.532H156.514C156.514 53.9912 156.828 55.203 157.363 56.1943C157.366 56.1969 157.366 56.2009 157.368 56.2036C158.865 59.3448 162.182 60.2443 166.14 60.4583C166.155 60.4596 166.169 60.4609 166.184 60.4609C166.885 60.5074 167.554 60.5207 168.161 60.5141C168.299 60.5167 168.437 60.5167 168.577 60.5167C170.452 60.5167 172.129 60.2629 173.608 59.758C174.851 59.3541 175.962 58.7681 176.938 57.9602C178.98 56.2727 180 54.0842 180 51.3948C180 51.3469 180 51.2991 179.999 51.2513C180 51.2181 180 51.1835 180 51.1503C179.999 48.6123 179.168 46.6391 177.509 45.2346Z" fill="#000066"/>
<path d="M92.8425 66.3155C92.5499 66.0683 92.0933 65.8716 91.4715 65.7241C90.9404 65.5979 90.5855 65.4757 90.4066 65.3574C90.2305 65.2418 90.1411 65.0784 90.137 64.8684C90.1438 64.6638 90.2332 64.499 90.4066 64.3754C90.5408 64.2798 90.7101 64.2187 90.9147 64.1947C90.9594 64.1907 91.0054 64.1881 91.0542 64.1868C91.3915 64.1788 92.0947 64.1655 92.2789 64.5548C92.3033 64.6067 92.3196 64.6651 92.3236 64.7316H93.2787H93.2814C93.2814 64.4711 93.2259 64.2585 93.1324 64.0845V64.0831C92.8709 63.5317 92.2897 63.3722 91.5975 63.3337C91.4647 63.3244 91.3387 63.3217 91.2249 63.3231H91.2208C91.2005 63.3231 91.1802 63.3231 91.1599 63.3231C90.8361 63.3231 90.5448 63.3656 90.2888 63.452C90.0639 63.5237 89.8647 63.6274 89.6886 63.7735C89.3296 64.0712 89.1494 64.4552 89.1494 64.9282C89.1494 64.9362 89.1494 64.9455 89.1494 64.9535C89.1494 64.9588 89.1494 64.9654 89.1494 64.9707C89.1494 65.4172 89.2957 65.764 89.587 66.0112C89.8796 66.2583 90.3362 66.455 90.958 66.6025C91.4891 66.7287 91.844 66.8509 92.0229 66.9692C92.1976 67.0835 92.287 67.2443 92.2925 67.4502V67.4555C92.287 67.6615 92.1976 67.8276 92.0229 67.9512C91.8887 68.0468 91.7194 68.1079 91.5148 68.1319C91.4701 68.1359 91.4227 68.1385 91.3753 68.1398C91.038 68.1478 90.3362 68.1598 90.1506 67.7731C90.1248 67.7213 90.1099 67.6628 90.1059 67.5951H89.1521H89.1494C89.1494 67.8555 89.205 68.0694 89.2984 68.2435C89.2984 68.2435 89.2984 68.2448 89.2998 68.2448C89.5626 68.7976 90.1465 68.9557 90.8429 68.9942C90.8456 68.9942 90.8483 68.9942 90.851 68.9942C90.9743 69.0022 91.0921 69.0049 91.1992 69.0035C91.2236 69.0035 91.2479 69.0035 91.2723 69.0035C91.6029 69.0035 91.8969 68.9584 92.1583 68.8707C92.3765 68.7989 92.5729 68.6966 92.745 68.5544C93.104 68.2568 93.2841 67.8728 93.2841 67.3997C93.2841 67.3917 93.2841 67.3824 93.2841 67.3745C93.2841 67.3692 93.2841 67.3625 93.2841 67.3572C93.2814 66.9094 93.1351 66.5626 92.8425 66.3155Z" fill="#000066"/>
<path d="M148.67 66.3155C148.377 66.0683 147.92 65.8716 147.299 65.7241C146.768 65.5979 146.413 65.4757 146.234 65.3574C146.058 65.2418 145.968 65.0784 145.964 64.8684C145.971 64.6638 146.06 64.499 146.234 64.3754C146.368 64.2798 146.537 64.2187 146.742 64.1947C146.787 64.1907 146.833 64.1881 146.881 64.1868C147.219 64.1788 147.922 64.1655 148.106 64.5548C148.13 64.6067 148.147 64.6651 148.151 64.7316H149.106H149.109C149.109 64.4711 149.053 64.2585 148.96 64.0845V64.0831C148.698 63.5317 148.117 63.3722 147.425 63.3337C147.292 63.3244 147.166 63.3217 147.052 63.3231H147.048C147.028 63.3231 147.007 63.3231 146.987 63.3231C146.663 63.3231 146.372 63.3656 146.116 63.452C145.891 63.5237 145.692 63.6274 145.516 63.7735C145.157 64.0712 144.977 64.4552 144.977 64.9282C144.977 64.9362 144.977 64.9455 144.977 64.9535C144.977 64.9588 144.977 64.9654 144.977 64.9707C144.977 65.4172 145.123 65.764 145.414 66.0112C145.707 66.2583 146.163 66.455 146.785 66.6025C147.316 66.7287 147.671 66.8509 147.85 66.9692C148.025 67.0835 148.114 67.2443 148.12 67.4502V67.4555C148.114 67.6615 148.025 67.8276 147.85 67.9512C147.716 68.0468 147.547 68.1079 147.342 68.1319C147.297 68.1359 147.25 68.1385 147.202 68.1398C146.865 68.1478 146.163 68.1598 145.978 67.7731C145.952 67.7213 145.937 67.6628 145.933 67.5951H144.979H144.977C144.977 67.8555 145.032 68.0694 145.126 68.2435C145.126 68.2435 145.126 68.2448 145.127 68.2448C145.39 68.7976 145.974 68.9557 146.67 68.9942C146.673 68.9942 146.675 68.9942 146.678 68.9942C146.801 69.0022 146.919 69.0049 147.026 69.0035C147.051 69.0035 147.075 69.0035 147.099 69.0035C147.43 69.0035 147.724 68.9584 147.985 68.8707C148.204 68.7989 148.4 68.6966 148.572 68.5544C148.931 68.2568 149.111 67.8728 149.111 67.3997C149.111 67.3917 149.111 67.3824 149.111 67.3745C149.111 67.3692 149.111 67.3625 149.111 67.3572C149.107 66.9094 148.962 66.5626 148.67 66.3155Z" fill="#000066"/>
<path d="M82.2134 32.1052V68.8708H19.1465L20.0962 67.7573L82.2134 32.1052Z" fill="#00CC00"/>
<path d="M31.3938 17.2759C31.1472 17.2759 30.9088 17.1497 30.7787 16.9238L24.6701 6.30833C24.4791 5.97481 24.5983 5.55358 24.9384 5.3649C25.2784 5.17754 25.7079 5.29448 25.9002 5.628L32.0089 16.2435C32.1999 16.577 32.0807 16.9982 31.7406 17.1869C31.6309 17.2467 31.5117 17.2759 31.3938 17.2759Z" fill="#000066"/>
<path d="M45.094 12.6877C44.7486 12.6877 44.4478 12.4392 44.3963 12.095L43.3247 4.85857C43.2691 4.47987 43.536 4.12909 43.9221 4.07461C44.3082 4.0188 44.6659 4.28189 44.7215 4.66059L45.7931 11.897C45.8486 12.2757 45.5817 12.6265 45.1956 12.681C45.1618 12.6863 45.1279 12.6877 45.094 12.6877Z" fill="#000066"/>
<path d="M59.562 13.2658C59.5092 13.2658 59.4563 13.2605 59.4035 13.2485C59.0241 13.1635 58.7857 12.7914 58.8738 12.4194L61.6524 0.537564C61.7391 0.164182 62.1184 -0.0683568 62.4978 0.0180129C62.8771 0.103054 63.1155 0.475107 63.0275 0.847161L60.2489 12.729C60.173 13.0479 59.8831 13.2658 59.562 13.2658Z" fill="#000066"/>
<path d="M72.8347 18.929C72.6992 18.929 72.561 18.8905 72.4391 18.8094C72.1167 18.5955 72.0313 18.165 72.2508 17.8487L76.4031 11.8321C76.6213 11.5158 77.0602 11.4321 77.3826 11.6474C77.7051 11.8613 77.7904 12.2918 77.5709 12.6081L73.4186 18.6247C73.2831 18.8227 73.0609 18.929 72.8347 18.929Z" fill="#000066"/>
<path d="M19.4848 26.8644C19.3277 26.8644 19.1691 26.8126 19.0377 26.7076L13.2746 22.0676C12.9738 21.8244 12.9291 21.3886 13.177 21.0936C13.425 20.7986 13.8693 20.7548 14.1701 20.9979L19.9332 25.638C20.234 25.8811 20.2787 26.317 20.0308 26.612C19.8912 26.7781 19.6894 26.8644 19.4848 26.8644Z" fill="#000066"/>
<path d="M12.5129 39.3084C12.4398 39.3084 12.3653 39.2977 12.2921 39.2738L0.485336 35.4656C0.115486 35.346 -0.0863751 34.9553 0.0355536 34.5913C0.157482 34.2285 0.555785 34.0305 0.92699 34.1501L12.7337 37.9583C13.1036 38.0779 13.3055 38.4686 13.1835 38.8327C13.086 39.1237 12.8096 39.3084 12.5129 39.3084Z" fill="#000066"/>
<path d="M3.19569 53.7601C2.82313 53.7601 2.51153 53.4731 2.49121 53.1037C2.47089 52.7223 2.77029 52.3968 3.15911 52.3769L10.5561 51.9995C10.9449 51.9796 11.2768 52.2732 11.2972 52.6546C11.3175 53.0359 11.0181 53.3615 10.6293 53.3814L3.23227 53.7588C3.22143 53.7601 3.20924 53.7601 3.19569 53.7601Z" fill="#000066"/>
<path d="M81.555 30.4428L80.8071 30.8693L18.7265 66.2596L17.9787 66.6862C17.9773 66.6848 17.9773 66.6835 17.9773 66.6822C17.9177 66.5174 15.9993 61.1984 15.4344 58.5515C14.8613 55.862 13.6475 47.1746 14.944 43.7437C16.2391 40.3115 17.9976 32.04 24.0683 26.1735C30.1404 20.307 34.7479 16.0137 48.7413 14.4883C62.7346 12.9629 72.7449 22.2842 74.0279 22.7957C75.3095 23.3073 80.8708 30.0189 80.8708 30.0189L81.555 30.4428Z" fill="#FFFF00"/>
<path d="M81.5549 30.4428L80.8071 30.8693C70.3389 15.2018 49.2046 10.3146 32.6751 19.7449C16.1565 29.1685 10.0343 49.5929 18.7265 66.2596L17.9786 66.6861C17.9773 66.6848 17.9773 66.6835 17.9773 66.6822C13.6759 58.4558 12.7628 49.0242 15.4059 40.1241C18.0586 31.1895 24.0385 23.6926 32.2416 19.0127C40.4487 14.3302 50.0526 12.9403 59.2853 15.0995C68.4855 17.2508 76.3933 22.7001 81.5549 30.4428Z" fill="#000066"/>
<path d="M71.0497 39.2179L52.9961 68.8706H82.2143L82.2075 32.2844L71.238 38.5456L71.0497 39.2179Z" fill="#00FF00"/>
<path d="M82.2146 64.394V63.3005L80.6214 64.2067L70.3197 55.4116L82.2146 48.6163V48.1207V47.4921L71.9319 38.713L82.2146 32.8385V31.741L58.1797 45.4724L32.8172 59.9626L18.6992 68.0295L19.149 68.8706L33.0042 60.9539L42.2762 68.8706H43.7488L33.8861 60.4503L45.6834 53.7108L55.985 62.5059L44.8434 68.872H46.7645L56.7545 63.1636L62.9539 68.4574L63.4511 68.872H64.921L57.6419 62.6573L69.4391 55.9178L79.7408 64.7129L72.4589 68.872H74.38L80.5103 65.3707L82.2159 66.8204V65.5687L81.3936 64.8657L82.2146 64.394ZM81.3502 48.013L69.5502 54.7538L59.25 45.9587L71.05 39.2166L81.3502 48.013ZM56.871 61.9983L46.5694 53.2032L58.3667 46.4637L68.6669 55.2588L56.871 61.9983Z" fill="#000066"/>
</svg>
